<svg width="640" height="640" viewBox="0 0 640 640" xmlns="http://www.w3.org/2000/svg"><rect width="100%" height="100%" fill="white"/><g><circle data-type="point" data-label="source_net_16_mst0" data-x="28.125" data-y="5.702999999999999" cx="318.84742577564293" cy="600" r="3" fill="red"/></g><g><circle data-type="point" data-label="source_net_16_mst0" data-x="31.134999999999998" data-y="13.931333333333333" cx="501.6673823916949" cy="100.23138105567602" r="3" fill="red"/></g><g><circle data-type="point" data-label="source_net_16_mst1" data-x="25.115000000000002" data-y="12.853" cx="136.02746915959096" cy="165.7266811279826" r="3" fill="red"/></g><g><circle data-type="point" data-label="source_net_16_mst1" data-x="31.134999999999998" data-y="13.931333333333333" cx="501.6673823916949" cy="100.23138105567602" r="3" fill="red"/></g><g><circle data-type="point" data-label="source_net_5_mst1" data-x="25.115000000000002" data-y="10.312999999999999" cx="136.02746915959096" cy="320" r="3" fill="red"/></g><g><circle data-type="point" data-label="source_net_5_mst1" data-x="31.134999999999998" data-y="11.391333333333332" cx="501.6673823916949" cy="254.50469992769342" r="3" fill="red"/></g><g><circle data-type="point" data-label="source_net_4_mst1" data-x="25.115000000000002" data-y="13.548" cx="136.02746915959096" cy="123.51409978308016" r="3" fill="blue"/></g><g><circle data-type="point" data-label="source_net_4_mst1" data-x="31.134999999999998" data-y="10.312999999999999" cx="501.6673823916949" cy="320" r="3" fill="red"/></g><g><polyline data-points="28.170837563451798,5.702999999999999 28.27269881556686,5.702999999999999 28.37456006768192,5.702999999999999 28.47642131979698,5.702999999999999 28.578282571912037,5.702999999999999 28.578282571912037,5.804207464324916 28.6801438240271,5.804207464324916 28.78200507614216,5.804207464324916 28.88386632825722,5.804207464324916 28.985727580372277,5.804207464324916 29.087588832487338,5.804207464324916 29.1894500846024,5.804207464324916 29.29131133671746,5.804207464324916 29.393172588832517,5.804207464324916 29.495033840947578,5.804207464324916 29.59689509306264,5.804207464324916 29.6987563451777,5.804207464324916 29.6987563451777,5.905414928649834 29.800617597292756,5.905414928649834 29.902478849407817,5.905414928649834 29.902478849407817,6.0066223929747515 30.004340101522878,6.0066223929747515 30.10620135363794,6.0066223929747515 30.208062605752996,6.0066223929747515 30.309923857868057,6.0066223929747515 30.309923857868057,6.107829857299669 30.309923857868057,6.209037321624587 30.309923857868057,6.3102447859495046 30.309923857868057,6.411452250274421 30.411785109983118,6.411452250274421 30.411785109983118,6.512659714599339 30.411785109983118,6.613867178924257 30.411785109983118,6.715074643249174 30.411785109983118,6.816282107574092" data-type="line" data-label="" points="321.6314860286807,600 327.8182865909837,600 334.0050871532867,600 340.1918877155897,600 346.3786882778925,600 346.3786882778925,593.8529088913283 352.5654888401957,593.8529088913283 358.7522894024987,593.8529088913283 364.9390899648017,593.8529088913283 371.1258905271045,593.8529088913283 377.3126910894075,593.8529088913283 383.4994916517105,593.8529088913283 389.68629221401375,593.8529088913283 395.8730927763165,593.8529088913283 402.05989333861953,593.8529088913283 408.24669390092254,593.8529088913283 414.43349446322554,593.8529088913283 414.43349446322554,587.7058177826565 420.62029502552855,587.7058177826565 426.80709558783155,587.7058177826565 426.80709558783155,581.5587266739847 432.99389615013456,581.5587266739847 439.18069671243757,581.5587266739847 445.36749727474034,581.5587266739847 451.55429783704335,581.5587266739847 451.55429783704335,575.411635565313 451.55429783704335,569.264544456641 451.55429783704335,563.1174533479693 451.55429783704335,556.9703622392976 457.7410983993466,556.9703622392976 457.7410983993466,550.8232711306257 457.7410983993466,544.676180021954 457.7410983993466,538.5290889132822 457.7410983993466,532.3819978046104" fill="none" stroke="rgba(255,0,0,0.75)" stroke-width="6.073752711496748"/></g><g><polyline data-points="30.411785109983118,6.816282107574092 30.51364636209818,6.816282107574092 30.51364636209818,6.917489571899009 30.51364636209818,7.0186970362239265 30.51364636209818,7.119904500548844 30.51364636209818,7.221111964873762 30.51364636209818,7.3223194291986795 30.51364636209818,7.423526893523597 30.51364636209818,7.524734357848514 30.51364636209818,7.625941822173432 30.615507614213236,7.625941822173432 30.615507614213236,7.727149286498349 30.615507614213236,7.828356750823267 30.615507614213236,7.929564215148184 30.717368866328297,7.929564215148184 30.717368866328297,8.030771679473101 30.717368866328297,8.13197914379802 30.819230118443357,8.13197914379802 30.92109137055842,8.13197914379802 31.022952622673476,8.13197914379802 31.022952622673476,8.233186608122939 31.022952622673476,8.334394072447854 31.022952622673476,8.435601536772772 31.022952622673476,8.53680900109769 31.022952622673476,8.63801646542261 31.022952622673476,8.739223929747524 31.022952622673476,8.840431394072443 31.022952622673476,8.941638858397361 31.022952622673476,9.042846322722276 31.022952622673476,9.144053787047195 30.92109137055842,9.144053787047195 30.92109137055842,9.245261251372114 30.92109137055842,9.346468715697032 30.92109137055842,9.447676180021947 30.92109137055842,9.548883644346866 30.92109137055842,9.650091108671784 30.92109137055842,9.7512985729967 30.92109137055842,9.852506037321618 30.92109137055842,9.953713501646536 30.92109137055842,10.054920965971451 30.92109137055842,10.15612843029637 30.92109137055842,10.257335894621288 30.92109137055842,10.358543358946207 30.92109137055842,10.459750823271122 30.92109137055842,10.56095828759604 30.92109137055842,10.66216575192096 30.92109137055842,10.763373216245874 30.92109137055842,10.864580680570793 30.92109137055842,10.965788144895711 30.819230118443357,10.965788144895711 30.819230118443357,11.06699560922063 30.819230118443357,11.168203073545545 30.819230118443357,11.269410537870463 30.819230118443357,11.370618002195382 30.819230118443357,11.471825466520297 30.819230118443357,11.573032930845216 30.819230118443357,11.674240395170134 30.819230118443357,11.77544785949505 30.819230118443357,11.876655323819968 30.819230118443357,11.977862788144886 30.819230118443357,12.079070252469805 30.819230118443357,12.18027771679472 30.819230118443357,12.281485181119638 30.819230118443357,12.382692645444557 30.819230118443357,12.483900109769472 30.819230118443357,12.58510757409439 30.819230118443357,12.686315038419309 30.819230118443357,12.787522502744228 30.819230118443357,12.888729967069143 30.819230118443357,12.989937431394061 30.819230118443357,13.09114489571898 30.819230118443357,13.192352360043895 30.819230118443357,13.293559824368813 30.819230118443357,13.394767288693732 30.819230118443357,13.495974753018647 30.819230118443357,13.597182217343565 30.92109137055842,13.597182217343565 31.022952622673476,13.597182217343565 31.022952622673476,13.698389681668484 31.022952622673476,13.799597145993403 31.022952622673476,13.900804610318318 31.022952622673476,14.002012074643236" data-type="line" data-label="" points="457.7410983993466,532.3819978046104 463.9278989616496,532.3819978046104 463.9278989616496,526.2349066959387 463.9278989616496,520.087815587267 463.9278989616496,513.940724478595 463.9278989616496,507.7936333699233 463.9278989616496,501.6465422612515 463.9278989616496,495.4994511525797 463.9278989616496,489.352360043908 463.9278989616496,483.2052689352362 470.11469952395237,483.2052689352362 470.11469952395237,477.0581778265644 470.11469952395237,470.9110867178926 470.11469952395237,464.7639956092209 476.3015000862554,464.7639956092209 476.3015000862554,458.6169045005491 476.3015000862554,452.46981339187727 482.4883006485584,452.46981339187727 488.6751012108614,452.46981339187727 494.8619017731644,452.46981339187727 494.8619017731644,446.3227222832054 494.8619017731644,440.17563117453375 494.8619017731644,434.0285400658619 494.8619017731644,427.88144895719006 494.8619017731644,421.73435784851824 494.8619017731644,415.58726673984665 494.8619017731644,409.4401756311747 494.8619017731644,403.2930845225029 494.8619017731644,397.1459934138313 494.8619017731644,390.9989023051595 488.6751012108614,390.9989023051595 488.6751012108614,384.8518111964876 488.6751012108614,378.70472008781576 488.6751012108614,372.55762897914417 488.6751012108614,366.41053787047224 488.6751012108614,360.2634467618004 488.6751012108614,354.11635565312884 488.6751012108614,347.969264544457 488.6751012108614,341.8221734357851 488.6751012108614,335.6750823271135 488.6751012108614,329.5279912184417 488.6751012108614,323.38090010976987 488.6751012108614,317.23380900109794 488.6751012108614,311.08671789242635 488.6751012108614,304.93962678375453 488.6751012108614,298.7925356750826 488.6751012108614,292.645444566411 488.6751012108614,286.4983534577392 488.6751012108614,280.3512623490674 482.4883006485584,280.3512623490674 482.4883006485584,274.20417124039545 482.4883006485584,268.05708013172386 482.4883006485584,261.90998902305205 482.4883006485584,255.76289791438023 482.4883006485584,249.61580680570853 482.4883006485584,243.4687156970367 482.4883006485584,237.3216245883649 482.4883006485584,231.1745334796932 482.4883006485584,225.02744237102138 482.4883006485584,218.88035126234956 482.4883006485584,212.73326015367775 482.4883006485584,206.58616904500605 482.4883006485584,200.43907793633423 482.4883006485584,194.2919868276624 482.4883006485584,188.1448957189907 482.4883006485584,181.9978046103189 482.4883006485584,175.85071350164708 482.4883006485584,169.70362239297526 482.4883006485584,163.55653128430356 482.4883006485584,157.40944017563174 482.4883006485584,151.26234906695993 482.4883006485584,145.11525795828823 482.4883006485584,138.9681668496164 482.4883006485584,132.8210757409446 482.4883006485584,126.673984632273 482.4883006485584,120.52689352360107 488.6751012108614,120.52689352360107 494.8619017731644,120.52689352360107 494.8619017731644,114.37980241492926 494.8619017731644,108.23271130625744 494.8619017731644,102.08562019758585 494.8619017731644,95.93852908891392" fill="none" stroke="rgba(0,0,255,0.75)" stroke-width="6.073752711496748"/></g><g><polyline data-points="31.022952622673476,14.002012074643236 31.134999999999998,14.002012074643236" data-type="line" data-label="" points="494.8619017731644,95.93852908891392 501.6673823916949,95.93852908891392" fill="none" stroke="rgba(255,0,0,0.75)" stroke-width="6.073752711496748"/></g><g><polyline data-points="25.115000000000002,12.888729967069143 25.115000000000002,12.989937431394061 25.115000000000002,13.09114489571898 25.115000000000002,13.192352360043895 25.115000000000002,13.293559824368813 25.115000000000002,13.394767288693732 25.115000000000002,13.495974753018647 25.216861252115063,13.495974753018647 25.216861252115063,13.597182217343565 25.216861252115063,13.698389681668484 25.216861252115063,13.799597145993403 25.216861252115063,13.900804610318318 25.216861252115063,14.002012074643236 25.216861252115063,14.103219538968155 25.216861252115063,14.20442700329307 25.216861252115063,14.305634467617988 25.216861252115063,14.406841931942907 25.216861252115063,14.508049396267825 25.31872250423012,14.508049396267825 25.42058375634518,14.508049396267825 25.42058375634518,14.60925686059274 25.52244500846024,14.60925686059274 25.624306260575302,14.60925686059274 25.72616751269036,14.60925686059274 25.82802876480542,14.60925686059274 25.92989001692048,14.60925686059274 26.031751269035542,14.60925686059274 26.1336125211506,14.60925686059274 26.23547377326566,14.60925686059274 26.33733502538072,14.60925686059274 26.439196277495782,14.60925686059274 26.54105752961084,14.60925686059274 26.6429187817259,14.60925686059274 26.74478003384096,14.60925686059274 26.84664128595602,14.60925686059274 26.94850253807108,14.60925686059274 27.05036379018614,14.60925686059274 27.1522250423012,14.60925686059274 27.25408629441626,14.60925686059274 27.35594754653132,14.60925686059274 27.45780879864638,14.60925686059274 27.55967005076144,14.60925686059274 27.6615313028765,14.60925686059274 27.763392554991558,14.60925686059274 27.86525380710662,14.60925686059274 27.96711505922168,14.60925686059274 28.06897631133674,14.60925686059274 28.170837563451798,14.60925686059274 28.170837563451798,14.710464324917659 28.27269881556686,14.710464324917659 28.37456006768192,14.710464324917659 28.47642131979698,14.710464324917659 28.578282571912037,14.710464324917659 28.6801438240271,14.710464324917659 28.78200507614216,14.710464324917659 28.88386632825722,14.710464324917659 28.985727580372277,14.710464324917659 29.087588832487338,14.710464324917659 29.1894500846024,14.710464324917659 29.29131133671746,14.710464324917659 29.393172588832517,14.710464324917659 29.495033840947578,14.710464324917659 29.59689509306264,14.710464324917659 29.6987563451777,14.710464324917659 29.800617597292756,14.710464324917659 29.902478849407817,14.710464324917659 30.004340101522878,14.710464324917659 30.10620135363794,14.710464324917659 30.208062605752996,14.710464324917659 30.309923857868057,14.710464324917659 30.411785109983118,14.710464324917659 30.51364636209818,14.710464324917659 30.615507614213236,14.710464324917659 30.717368866328297,14.710464324917659 30.819230118443357,14.710464324917659 30.92109137055842,14.710464324917659 31.022952622673476,14.710464324917659 31.022952622673476,14.60925686059274 31.022952622673476,14.508049396267825 31.022952622673476,14.406841931942907 31.022952622673476,14.305634467617988 31.134999999999998,14.305634467617988 31.134999999999998,14.20442700329307 31.134999999999998,14.103219538968155 31.134999999999998,14.002012074643236" data-type="line" data-label="" points="136.02746915959096,163.55653128430356 136.02746915959096,157.40944017563174 136.02746915959096,151.26234906695993 136.02746915959096,145.11525795828823 136.02746915959096,138.9681668496164 136.02746915959096,132.8210757409446 136.02746915959096,126.673984632273 142.21426972189397,126.673984632273 142.21426972189397,120.52689352360107 142.21426972189397,114.37980241492926 142.21426972189397,108.23271130625744 142.21426972189397,102.08562019758585 142.21426972189397,95.93852908891392 142.21426972189397,89.79143798024211 142.21426972189397,83.64434687157052 142.21426972189397,77.49725576289859 142.21426972189397,71.35016465422677 142.21426972189397,65.20307354555496 148.40107028419698,65.20307354555496 154.58787084649998,65.20307354555496 154.58787084649998,59.05598243688337 160.774671408803,59.05598243688337 166.961471971106,59.05598243688337 173.14827253340877,59.05598243688337 179.335073095712,59.05598243688337 185.521873658015,59.05598243688337 191.70867422031802,59.05598243688337 197.8954747826208,59.05598243688337 204.0822753449238,59.05598243688337 210.2690759072268,59.05598243688337 216.45587646953004,59.05598243688337 222.64267703183282,59.05598243688337 228.82947759413582,59.05598243688337 235.01627815643883,59.05598243688337 241.20307871874184,59.05598243688337 247.38987928104484,59.05598243688337 253.57667984334785,59.05598243688337 259.76348040565085,59.05598243688337 265.95028096795386,59.05598243688337 272.13708153025664,59.05598243688337 278.32388209255964,59.05598243688337 284.5106826548629,59.05598243688337 290.6974832171659,59.05598243688337 296.88428377946866,59.05598243688337 303.07108434177167,59.05598243688337 309.2578849040747,59.05598243688337 315.4446854663777,59.05598243688337 321.6314860286807,59.05598243688337 321.6314860286807,52.90889132821144 327.8182865909837,52.90889132821144 334.0050871532867,52.90889132821144 340.1918877155897,52.90889132821144 346.3786882778925,52.90889132821144 352.5654888401957,52.90889132821144 358.7522894024987,52.90889132821144 364.9390899648017,52.90889132821144 371.1258905271045,52.90889132821144 377.3126910894075,52.90889132821144 383.4994916517105,52.90889132821144 389.68629221401375,52.90889132821144 395.8730927763165,52.90889132821144 402.05989333861953,52.90889132821144 408.24669390092254,52.90889132821144 414.43349446322554,52.90889132821144 420.62029502552855,52.90889132821144 426.80709558783155,52.90889132821144 432.99389615013456,52.90889132821144 439.18069671243757,52.90889132821144 445.36749727474034,52.90889132821144 451.55429783704335,52.90889132821144 457.7410983993466,52.90889132821144 463.9278989616496,52.90889132821144 470.11469952395237,52.90889132821144 476.3015000862554,52.90889132821144 482.4883006485584,52.90889132821144 488.6751012108614,52.90889132821144 494.8619017731644,52.90889132821144 494.8619017731644,59.05598243688337 494.8619017731644,65.20307354555496 494.8619017731644,71.35016465422677 494.8619017731644,77.49725576289859 501.6673823916949,77.49725576289859 501.6673823916949,83.64434687157052 501.6673823916949,89.79143798024211 501.6673823916949,95.93852908891392" fill="none" stroke="rgba(255,0,0,0.75)" stroke-width="6.073752711496748"/></g><g><polyline data-points="25.115000000000002,10.358543358946207 25.115000000000002,10.459750823271122 25.115000000000002,10.56095828759604 25.216861252115063,10.56095828759604 25.31872250423012,10.56095828759604 25.31872250423012,10.66216575192096 25.31872250423012,10.763373216245874 25.31872250423012,10.864580680570793 25.31872250423012,10.965788144895711 25.31872250423012,11.06699560922063 25.31872250423012,11.168203073545545 25.31872250423012,11.269410537870463 25.31872250423012,11.370618002195382 25.42058375634518,11.370618002195382 25.52244500846024,11.370618002195382 25.624306260575302,11.370618002195382 25.624306260575302,11.471825466520297 25.72616751269036,11.471825466520297 25.82802876480542,11.471825466520297 25.92989001692048,11.471825466520297 26.031751269035542,11.471825466520297 26.286404399323217,11.522429198682758 26.69384940778345,11.522429198682758 27.101294416243686,11.522429198682758 27.50873942470392,11.522429198682758 27.916184433164155,11.522429198682758 28.323629441624387,11.522429198682758 28.731074450084616,11.522429198682758 29.138519458544852,11.522429198682758 29.545964467005085,11.522429198682758 29.95340947546532,11.522429198682758 30.208062605752996,11.674240395170134 30.309923857868057,11.674240395170134 30.411785109983118,11.674240395170134 30.51364636209818,11.674240395170134 30.615507614213236,11.674240395170134 30.717368866328297,11.674240395170134 30.819230118443357,11.674240395170134 30.92109137055842,11.674240395170134 31.022952622673476,11.674240395170134 31.134999999999998,11.674240395170134 31.134999999999998,11.573032930845216 31.134999999999998,11.471825466520297 31.134999999999998,11.370618002195382" data-type="line" data-label="" points="136.02746915959096,317.23380900109794 136.02746915959096,311.08671789242635 136.02746915959096,304.93962678375453 142.21426972189397,304.93962678375453 148.40107028419698,304.93962678375453 148.40107028419698,298.7925356750826 148.40107028419698,292.645444566411 148.40107028419698,286.4983534577392 148.40107028419698,280.3512623490674 148.40107028419698,274.20417124039545 148.40107028419698,268.05708013172386 148.40107028419698,261.90998902305205 148.40107028419698,255.76289791438023 154.58787084649998,255.76289791438023 160.774671408803,255.76289791438023 166.961471971106,255.76289791438023 166.961471971106,249.61580680570853 173.14827253340877,249.61580680570853 179.335073095712,249.61580680570853 185.521873658015,249.61580680570853 191.70867422031802,249.61580680570853 207.175675626077,246.54226125137257 231.92287787528858,246.54226125137257 256.6700801245004,246.54226125137257 281.4172823737117,246.54226125137257 306.1644846229235,246.54226125137257 330.9116868721351,246.54226125137257 355.6588891213464,246.54226125137257 380.4060913705582,246.54226125137257 405.15329361976956,246.54226125137257 429.90049586898135,246.54226125137257 445.36749727474034,237.3216245883649 451.55429783704335,237.3216245883649 457.7410983993466,237.3216245883649 463.9278989616496,237.3216245883649 470.11469952395237,237.3216245883649 476.3015000862554,237.3216245883649 482.4883006485584,237.3216245883649 488.6751012108614,237.3216245883649 494.8619017731644,237.3216245883649 501.6673823916949,237.3216245883649 501.6673823916949,243.4687156970367 501.6673823916949,249.61580680570853 501.6673823916949,255.76289791438023" fill="none" stroke="rgba(255,0,0,0.75)" stroke-width="6.073752711496748"/></g><g><polyline data-points="25.115000000000002,13.597182217343565 25.115000000000002,13.698389681668484 25.216861252115063,13.698389681668484 25.216861252115063,13.799597145993403 25.31872250423012,13.799597145993403 25.42058375634518,13.799597145993403 25.52244500846024,13.799597145993403 25.624306260575302,13.799597145993403 25.72616751269036,13.799597145993403 25.82802876480542,13.799597145993403 25.92989001692048,13.799597145993403 26.031751269035542,13.799597145993403 26.286404399323217,13.546578485181119 26.286404399323217,13.141748627881444 26.286404399323217,12.736918770581774 26.286404399323217,12.332088913282103 26.286404399323217,11.927259055982432 26.286404399323217,11.522429198682758 26.286404399323217,11.117599341383087 26.286404399323217,10.712769484083417 26.286404399323217,10.307939626783746 26.69384940778345,10.307939626783746 27.101294416243686,10.307939626783746 27.50873942470392,10.307939626783746 27.916184433164155,10.307939626783746 28.323629441624387,10.307939626783746 28.731074450084616,10.307939626783746 29.138519458544852,10.307939626783746 29.545964467005085,10.307939626783746 29.95340947546532,10.307939626783746 30.208062605752996,10.358543358946207 30.309923857868057,10.358543358946207" data-type="line" data-label="" points="136.02746915959096,120.52689352360107 136.02746915959096,114.37980241492926 142.21426972189397,114.37980241492926 142.21426972189397,108.23271130625744 148.40107028419698,108.23271130625744 154.58787084649998,108.23271130625744 160.774671408803,108.23271130625744 166.961471971106,108.23271130625744 173.14827253340877,108.23271130625744 179.335073095712,108.23271130625744 185.521873658015,108.23271130625744 191.70867422031802,108.23271130625744 207.175675626077,123.60043907793624 207.175675626077,148.18880351262362 207.175675626077,172.77716794731077 207.175675626077,197.36553238199804 207.175675626077,221.9538968166852 207.175675626077,246.54226125137257 207.175675626077,271.1306256860597 207.175675626077,295.71899012074687 207.175675626077,320.307354555434 231.92287787528858,320.307354555434 256.6700801245004,320.307354555434 281.4172823737117,320.307354555434 306.1644846229235,320.307354555434 330.9116868721351,320.307354555434 355.6588891213464,320.307354555434 380.4060913705582,320.307354555434 405.15329361976956,320.307354555434 429.90049586898135,320.307354555434 445.36749727474034,317.23380900109794 451.55429783704335,317.23380900109794" fill="none" stroke="rgba(0,0,255,0.75)" stroke-width="6.073752711496748"/></g><g><polyline data-points="30.309923857868057,10.358543358946207 30.411785109983118,10.358543358946207 30.51364636209818,10.358543358946207 30.615507614213236,10.358543358946207 30.717368866328297,10.358543358946207 30.819230118443357,10.358543358946207 30.92109137055842,10.358543358946207 31.022952622673476,10.358543358946207 31.134999999999998,10.358543358946207" data-type="line" data-label="" points="451.55429783704335,317.23380900109794 457.7410983993466,317.23380900109794 463.9278989616496,317.23380900109794 470.11469952395237,317.23380900109794 476.3015000862554,317.23380900109794 482.4883006485584,317.23380900109794 488.6751012108614,317.23380900109794 494.8619017731644,317.23380900109794 501.6673823916949,317.23380900109794" fill="none" stroke="rgba(255,0,0,0.75)" stroke-width="6.073752711496748"/></g><g><rect data-type="rect" data-label="" data-x="28.125" data-y="10.312999999999999" x="136.02746915959096" y="40" width="365.63991323210394" height="560" fill="none" stroke="gray" stroke-width="0.016464285714285713"/></g><circle data-type="circle" data-label="" data-x="30.411785109983118" data-y="6.816282107574092" cx="457.7410983993466" cy="532.3819978046104" r="9.110629067245121" fill="rgba(0,0,0,0.3)" stroke="black" stroke-width="0.016464285714285713"/><circle data-type="circle" data-label="" data-x="31.022952622673476" data-y="14.002012074643236" cx="494.8619017731644" cy="95.93852908891392" r="9.110629067245121" fill="rgba(0,0,0,0.3)" stroke="black" stroke-width="0.016464285714285713"/><circle data-type="circle" data-label="" data-x="30.309923857868057" data-y="10.358543358946207" cx="451.55429783704335" cy="317.23380900109794" r="9.110629067245121" fill="rgba(0,0,0,0.3)" stroke="black" stroke-width="0.016464285714285713"/><g id="crosshair" style="display: none"><line id="crosshair-h" y1="0" y2="640" stroke="#666" stroke-width="0.5"/><line id="crosshair-v" x1="0" x2="640" stroke="#666" stroke-width="0.5"/><text id="coordinates" font-family="monospace" font-size="12" fill="#666"></text></g><script><![CDATA[
              document.currentScript.parentElement.addEventListener('mousemove', (e) => {
                const svg = e.currentTarget;
                const rect = svg.getBoundingClientRect();
                const x = e.clientX - rect.left;
                const y = e.clientY - rect.top;
                const crosshair = svg.getElementById('crosshair');
                const h = svg.getElementById('crosshair-h');
                const v = svg.getElementById('crosshair-v');
                const coords = svg.getElementById('coordinates');
                
                crosshair.style.display = 'block';
                h.setAttribute('x1', '0');
                h.setAttribute('x2', '640');
                h.setAttribute('y1', y);
                h.setAttribute('y2', y);
                v.setAttribute('x1', x);
                v.setAttribute('x2', x);
                v.setAttribute('y1', '0');
                v.setAttribute('y2', '640');

                // Calculate real coordinates using inverse transformation
                const matrix = {"a":60.73752711496747,"c":0,"e":-1389.395524332817,"b":0,"d":-60.73752711496747,"f":946.3861171366594};
                // Manually invert and apply the affine transform
                // Since we only use translate and scale, we can directly compute:
                // x' = (x - tx) / sx
                // y' = (y - ty) / sy
                const sx = matrix.a;
                const sy = matrix.d;
                const tx = matrix.e; 
                const ty = matrix.f;
                const realPoint = {
                  x: (x - tx) / sx,
                  y: (y - ty) / sy // Flip y back since we used negative scale
                }
                
                coords.textContent = `(${realPoint.x.toFixed(2)}, ${realPoint.y.toFixed(2)})`;
                coords.setAttribute('x', (x + 5).toString());
                coords.setAttribute('y', (y - 5).toString());
              });
              document.currentScript.parentElement.addEventListener('mouseleave', () => {
                document.currentScript.parentElement.getElementById('crosshair').style.display = 'none';
              });
            ]]></script></svg>