<svg width="640" height="640" viewBox="0 0 640 640" xmlns="http://www.w3.org/2000/svg"><rect width="100%" height="100%" fill="white"/><g><circle data-type="point" data-label="source_net_10" data-x="-2.325" data-y="0.00012700000002041634" cx="418.66255144032925" cy="224.06675720164492" r="3" fill="blue"/></g><g><circle data-type="point" data-label="source_net_10" data-x="-5.75" data-y="-4.084999999999998" cx="221.3374485596708" cy="459.4238683127571" r="3" fill="red"/></g><g><circle data-type="point" data-label="source_net_11_mst1" data-x="-5.75" data-y="0.6450000000000004" cx="221.3374485596708" cy="186.91358024691357" r="3" fill="blue"/></g><g><circle data-type="point" data-label="source_net_11_mst1" data-x="-2.3249999999999993" data-y="0.6644318000000826" cx="418.66255144032925" cy="185.79405267489236" r="3" fill="red"/></g><g><circle data-type="point" data-label="source_net_14_mst0" data-x="-5.75" data-y="-6.3" cx="221.3374485596708" cy="587.037037037037" r="3" fill="blue"/></g><g><circle data-type="point" data-label="source_net_14_mst0" data-x="-5.125000000000001" data-y="-6.525" cx="257.34567901234567" cy="600" r="3" fill="red"/></g><g><circle data-type="point" data-label="source_net_12_mst0" data-x="-5.75" data-y="3.0775" cx="221.3374485596708" cy="46.76954732510288" r="3" fill="blue"/></g><g><circle data-type="point" data-label="source_net_12_mst0" data-x="-2.3249999999999993" data-y="0.00012700000002052736" cx="418.66255144032925" cy="224.06675720164492" r="3" fill="red"/></g><g><circle data-type="point" data-label="source_net_12_mst1" data-x="-2.3249999999999993" data-y="0.00012700000002052736" cx="418.66255144032925" cy="224.06675720164492" r="3" fill="red"/></g><g><circle data-type="point" data-label="source_net_12_mst1" data-x="-2.3249999999999993" data-y="2.227772720000033" cx="418.66255144032925" cy="95.72502847736439" r="3" fill="blue"/></g><g><circle data-type="point" data-label="source_net_8_mst1" data-x="-5.75" data-y="-0.8449999999999998" cx="221.3374485596708" cy="272.7572016460905" r="3" fill="red"/></g><g><circle data-type="point" data-label="source_net_8_mst1" data-x="-2.325" data-y="-0.33202540000001046" cx="418.66255144032925" cy="243.20310946502119" r="3" fill="blue"/></g><g><circle data-type="point" data-label="source_net_13_mst1" data-x="-4.367500000000001" data-y="3.195" cx="300.98765432098764" cy="40.00000000000003" r="3" fill="blue"/></g><g><circle data-type="point" data-label="source_net_13_mst1" data-x="-2.3249999999999993" data-y="0.3322794000000515" cx="418.66255144032925" cy="204.93040493826865" r="3" fill="red"/></g><g><circle data-type="point" data-label="source_net_14_mst1" data-x="-4.2" data-y="-6.525" cx="310.63786008230454" cy="600" r="3" fill="red"/></g><g><circle data-type="point" data-label="source_net_14_mst1" data-x="-2.3249999999999993" data-y="-1.6749962000000074" cx="418.66255144032925" cy="320.57591275720205" r="3" fill="blue"/></g><g><circle data-type="point" data-label="source_net_15_mst4" data-x="-2.55" data-y="-6.525" cx="405.69958847736626" cy="600" r="3" fill="red"/></g><g><circle data-type="point" data-label="source_net_15_mst4" data-x="-2.655000000000001" data-y="3.1949999999999994" cx="399.6502057613168" cy="40.00000000000006" r="3" fill="blue"/></g><g><polyline data-points="-4.193181818181818,-6.5249999999999995 -4.089393939393939,-6.423749999999999 -3.985606060606061,-6.322499999999999 -3.8818181818181823,-6.2212499999999995 -3.778030303030303,-6.119999999999999 -3.6742424242424243,-6.01875 -3.5704545454545458,-5.917499999999999 -3.466666666666667,-5.816249999999999 -3.362878787878788,-5.714999999999999 -3.362878787878788,-5.61375 -3.362878787878788,-5.512499999999999" data-type="line" data-label="" points="311.03067714178826,600 317.01022571392946,594.1666666666665 322.98977428607054,588.3333333333333 328.96932285821174,582.5 334.94887143035294,576.6666666666665 340.9284200024941,570.8333333333333 346.9079685746352,564.9999999999999 352.8875171467764,559.1666666666665 358.8670657189176,553.3333333333333 358.8670657189176,547.5 358.8670657189176,541.6666666666666" fill="none" stroke="rgba(255,0,0,0.75)" stroke-width="5.761316872427983"/></g><g><polyline data-points="-3.362878787878788,-5.512499999999999 -3.2590909090909093,-5.411249999999999 -3.1553030303030303,-5.31 -3.0515151515151513,-5.208749999999999 -2.9477272727272728,-5.107499999999999 -2.843939393939394,-5.00625 -2.7401515151515152,-4.904999999999999 -2.6363636363636362,-4.80375 -2.5325757575757573,-4.702499999999999 -2.428787878787879,-4.601249999999999 -2.325,-4.5 -2.325,-4.398750000000001 -2.325,-4.297499999999999 -2.325,-4.196249999999999 -2.325,-4.095 -2.325,-3.99375 -2.325,-3.8925 -2.325,-3.7912500000000002 -2.325,-3.6900000000000004 -2.325,-3.58875 -2.325,-3.4875000000000003 -2.325,-3.38625 -2.325,-3.2850000000000006 -2.325,-3.1837500000000003 -2.325,-3.0825000000000005 -2.325,-2.98125 -2.325,-2.8800000000000003 -2.325,-2.7787500000000005 -2.325,-2.6775000000000007 -2.325,-2.5762500000000004 -2.325,-2.475000000000001 -2.325,-2.3737500000000002 -2.325,-2.272500000000001 -2.325,-2.17125 -2.325,-2.0700000000000007 -2.325,-1.9687500000000009 -2.325,-1.8675000000000004 -2.325,-1.7662500000000008 -2.325,-1.6650000000000003" data-type="line" data-label="" points="358.8670657189176,541.6666666666666 364.8466142910587,535.8333333333333 370.8261628631999,530 376.8057114353411,524.1666666666666 382.78526000748224,518.3333333333333 388.7648085796234,512.5 394.7443571517646,506.66666666666663 400.7239057239058,500.8333333333333 406.7034542960469,494.9999999999999 412.68300286818805,489.16666666666663 418.66255144032925,483.3333333333333 418.66255144032925,477.5 418.66255144032925,471.66666666666663 418.66255144032925,465.83333333333326 418.66255144032925,460 418.66255144032925,454.16666666666663 418.66255144032925,448.3333333333333 418.66255144032925,442.5 418.66255144032925,436.6666666666667 418.66255144032925,430.8333333333333 418.66255144032925,425 418.66255144032925,419.16666666666663 418.66255144032925,413.33333333333337 418.66255144032925,407.5 418.66255144032925,401.6666666666667 418.66255144032925,395.83333333333337 418.66255144032925,390 418.66255144032925,384.1666666666667 418.66255144032925,378.33333333333337 418.66255144032925,372.5 418.66255144032925,366.66666666666674 418.66255144032925,360.83333333333337 418.66255144032925,355 418.66255144032925,349.1666666666667 418.66255144032925,343.33333333333337 418.66255144032925,337.50000000000006 418.66255144032925,331.6666666666667 418.66255144032925,325.83333333333337 418.66255144032925,320" fill="none" stroke="rgba(0,0,255,0.75)" stroke-width="5.761316872427983"/></g><g><polyline data-points="-5.75,-6.322499999999999 -5.646212121212121,-6.2212499999999995 -5.542424242424242,-6.119999999999999 -5.4386363636363635,-6.01875 -5.334848484848484,-5.917499999999999 -5.231060606060606,-5.816249999999999 -5.127272727272727,-5.714999999999999 -5.023484848484848,-5.61375 -4.91969696969697,-5.512499999999999 -4.8159090909090905,-5.512499999999999 -4.712121212121212,-5.512499999999999" data-type="line" data-label="" points="221.3374485596708,588.3333333333333 227.316997131812,582.5 233.29654570395314,576.6666666666665 239.27609427609428,570.8333333333333 245.25564284823548,564.9999999999999 251.23519142037662,559.1666666666665 257.2147399925178,553.3333333333333 263.19428856465896,547.5 269.1738371368001,541.6666666666666 275.1533857089413,541.6666666666666 281.13293428108244,541.6666666666666" fill="none" stroke="rgba(0,0,255,0.75)" stroke-width="5.761316872427983"/></g><g><polyline data-points="-4.712121212121212,-5.512499999999999 -4.8159090909090905,-5.61375 -4.91969696969697,-5.714999999999999 -5.023484848484848,-5.816249999999999 -5.127272727272727,-5.917499999999999 -5.127272727272727,-6.01875 -5.127272727272727,-6.119999999999999 -5.127272727272727,-6.2212499999999995 -5.127272727272727,-6.322499999999999 -5.127272727272727,-6.423749999999999 -5.127272727272727,-6.5249999999999995" data-type="line" data-label="" points="281.13293428108244,541.6666666666666 275.1533857089413,547.5 269.1738371368001,553.3333333333333 263.19428856465896,559.1666666666665 257.2147399925178,564.9999999999999 257.2147399925178,570.8333333333333 257.2147399925178,576.6666666666665 257.2147399925178,582.5 257.2147399925178,588.3333333333333 257.2147399925178,594.1666666666665 257.2147399925178,600" fill="none" stroke="rgba(255,0,0,0.75)" stroke-width="5.761316872427983"/></g><g><polyline data-points="-5.75,-0.8550000000000005 -5.646212121212121,-0.9562500000000002 -5.542424242424242,-1.0575000000000008 -5.4386363636363635,-1.1587500000000004 -5.334848484848484,-1.260000000000001 -5.231060606060606,-1.3612500000000005 -5.231060606060606,-1.4625000000000001 -5.231060606060606,-1.5637500000000006 -5.231060606060606,-1.6650000000000003 -5.127272727272727,-1.7662500000000008 -5.023484848484848,-1.8675000000000004 -4.91969696969697,-1.9687500000000009 -4.91969696969697,-2.0700000000000007 -4.91969696969697,-2.17125 -4.91969696969697,-2.272500000000001 -4.8159090909090905,-2.3737500000000002 -4.712121212121212,-2.475000000000001 -4.8159090909090905,-2.5762500000000004 -4.712121212121212,-2.6775000000000007" data-type="line" data-label="" points="221.3374485596708,273.33333333333337 227.316997131812,279.1666666666667 233.29654570395314,285.00000000000006 239.27609427609428,290.83333333333337 245.25564284823548,296.66666666666674 251.23519142037662,302.5 251.23519142037662,308.33333333333337 251.23519142037662,314.1666666666667 251.23519142037662,320 257.2147399925178,325.83333333333337 263.19428856465896,331.6666666666667 269.1738371368001,337.50000000000006 269.1738371368001,343.33333333333337 269.1738371368001,349.1666666666667 269.1738371368001,355 275.1533857089413,360.83333333333337 281.13293428108244,366.66666666666674 275.1533857089413,372.5 281.13293428108244,378.33333333333337" fill="none" stroke="rgba(255,0,0,0.75)" stroke-width="5.761316872427983"/></g><g><polyline data-points="-4.712121212121212,-2.6775000000000007 -4.6083333333333325,-2.5762500000000004 -4.504545454545454,-2.475000000000001 -4.504545454545454,-2.3737500000000002 -4.400757575757576,-2.272500000000001 -4.296969696969697,-2.17125 -4.193181818181818,-2.0700000000000007 -4.089393939393939,-1.9687500000000009 -3.985606060606061,-1.9687500000000009 -3.8818181818181823,-1.8675000000000004 -3.778030303030303,-1.7662500000000008 -3.6742424242424243,-1.6650000000000003 -3.5704545454545458,-1.5637500000000006 -3.466666666666667,-1.4625000000000001 -3.362878787878788,-1.4625000000000001 -3.2590909090909093,-1.4625000000000001 -3.1553030303030303,-1.3612500000000005 -3.0515151515151513,-1.260000000000001 -2.9477272727272728,-1.1587500000000004 -2.9477272727272728,-1.0575000000000008 -2.843939393939394,-0.9562500000000002 -2.843939393939394,-0.8550000000000005 -2.7401515151515152,-0.7537500000000009 -2.6363636363636362,-0.6525000000000004 -2.5325757575757573,-0.5512500000000008 -2.428787878787879,-0.45000000000000034 -2.325,-0.3487500000000007" data-type="line" data-label="" points="281.13293428108244,378.33333333333337 287.11248285322364,372.5 293.0920314253648,366.66666666666674 293.0920314253648,360.83333333333337 299.0715799975059,355 305.0511285696471,349.1666666666667 311.03067714178826,343.33333333333337 317.01022571392946,337.50000000000006 322.98977428607054,337.50000000000006 328.96932285821174,331.6666666666667 334.94887143035294,325.83333333333337 340.9284200024941,320 346.9079685746352,314.1666666666667 352.8875171467764,308.33333333333337 358.8670657189176,308.33333333333337 364.8466142910587,308.33333333333337 370.8261628631999,302.5 376.8057114353411,296.66666666666674 382.78526000748224,290.83333333333337 382.78526000748224,285.00000000000006 388.7648085796234,279.1666666666667 388.7648085796234,273.33333333333337 394.7443571517646,267.50000000000006 400.7239057239058,261.6666666666667 406.7034542960469,255.83333333333337 412.68300286818805,250.00000000000003 418.66255144032925,244.1666666666667" fill="none" stroke="rgba(0,0,255,0.75)" stroke-width="5.761316872427983"/></g><g><polyline data-points="-2.325,0.05624999999999952 -2.428787878787879,-0.045000000000000984 -2.5325757575757573,0.05624999999999952 -2.6363636363636362,-0.045000000000000984 -2.7401515151515152,-0.1462500000000006 -2.843939393939394,-0.1462500000000006 -2.9477272727272728,-0.2475000000000011 -3.0515151515151513,-0.3487500000000007 -3.1553030303030303,-0.45000000000000034 -3.2590909090909093,-0.5512500000000008 -3.362878787878788,-0.6525000000000004 -3.466666666666667,-0.7537500000000009 -3.5704545454545458,-0.8550000000000005 -3.6742424242424243,-0.9562500000000002 -3.778030303030303,-1.0575000000000008 -3.8818181818181823,-1.1587500000000004 -3.8818181818181823,-1.260000000000001 -3.985606060606061,-1.3612500000000005 -4.089393939393939,-1.4625000000000001 -4.193181818181818,-1.5637500000000006 -4.296969696969697,-1.5637500000000006 -4.400757575757576,-1.6650000000000003 -4.504545454545454,-1.6650000000000003 -4.6083333333333325,-1.7662500000000008" data-type="line" data-label="" points="418.66255144032925,220.83333333333337 412.68300286818805,226.6666666666667 406.7034542960469,220.83333333333337 400.7239057239058,226.6666666666667 394.7443571517646,232.50000000000003 388.7648085796234,232.50000000000003 382.78526000748224,238.3333333333334 376.8057114353411,244.1666666666667 370.8261628631999,250.00000000000003 364.8466142910587,255.83333333333337 358.8670657189176,261.6666666666667 352.8875171467764,267.50000000000006 346.9079685746352,273.33333333333337 340.9284200024941,279.1666666666667 334.94887143035294,285.00000000000006 328.96932285821174,290.83333333333337 328.96932285821174,296.66666666666674 322.98977428607054,302.5 317.01022571392946,308.33333333333337 311.03067714178826,314.1666666666667 305.0511285696471,314.1666666666667 299.0715799975059,320 293.0920314253648,320 287.11248285322364,325.83333333333337" fill="none" stroke="rgba(0,0,255,0.75)" stroke-width="5.761316872427983"/></g><g><polyline data-points="-4.6083333333333325,-1.7662500000000008 -4.712121212121212,-1.8675000000000004 -4.712121212121212,-1.9687500000000009 -4.712121212121212,-2.0700000000000007 -4.6083333333333325,-2.17125 -4.6083333333333325,-2.272500000000001 -4.6083333333333325,-2.3737500000000002 -4.504545454545454,-2.475000000000001 -4.400757575757576,-2.5762500000000004 -4.296969696969697,-2.6775000000000007 -4.400757575757576,-2.7787500000000005 -4.400757575757576,-2.8800000000000003 -4.400757575757576,-2.98125 -4.504545454545454,-3.0825000000000005 -4.6083333333333325,-3.1837500000000003 -4.712121212121212,-3.2850000000000006 -4.8159090909090905,-3.38625 -4.91969696969697,-3.4875000000000003 -5.023484848484848,-3.58875 -5.127272727272727,-3.6900000000000004 -5.231060606060606,-3.7912500000000002 -5.334848484848484,-3.8925 -5.4386363636363635,-3.99375 -5.542424242424242,-3.99375 -5.646212121212121,-3.99375 -5.75,-4.095" data-type="line" data-label="" points="287.11248285322364,325.83333333333337 281.13293428108244,331.6666666666667 281.13293428108244,337.50000000000006 281.13293428108244,343.33333333333337 287.11248285322364,349.1666666666667 287.11248285322364,355 287.11248285322364,360.83333333333337 293.0920314253648,366.66666666666674 299.0715799975059,372.5 305.0511285696471,378.33333333333337 299.0715799975059,384.1666666666667 299.0715799975059,390 299.0715799975059,395.83333333333337 293.0920314253648,401.6666666666667 287.11248285322364,407.5 281.13293428108244,413.33333333333337 275.1533857089413,419.16666666666663 269.1738371368001,425 263.19428856465896,430.8333333333333 257.2147399925178,436.6666666666667 251.23519142037662,442.5 245.25564284823548,448.3333333333333 239.27609427609428,454.16666666666663 233.29654570395314,454.16666666666663 227.316997131812,454.16666666666663 221.3374485596708,460" fill="none" stroke="rgba(255,0,0,0.75)" stroke-width="5.761316872427983"/></g><g><polyline data-points="-5.75,3.194999999999998 -5.646212121212121,3.0937499999999987 -5.542424242424242,2.992499999999999 -5.542424242424242,2.8912499999999977 -5.646212121212121,2.789999999999998 -5.646212121212121,2.6887499999999984 -5.75,2.5874999999999986 -5.646212121212121,2.486249999999999 -5.646212121212121,2.3849999999999976 -5.75,2.283749999999998 -5.75,2.1824999999999983 -5.75,2.081249999999999 -5.75,1.9799999999999993 -5.75,1.878749999999998 -5.75,1.7774999999999983 -5.75,1.6762499999999987 -5.646212121212121,1.574999999999999 -5.542424242424242,1.4737499999999986 -5.4386363636363635,1.372499999999999 -5.334848484848484,1.2712499999999984 -5.231060606060606,1.1699999999999988 -5.127272727272727,1.0687499999999992 -5.127272727272727,0.9674999999999988 -5.023484848484848,0.8662499999999992 -4.91969696969697,0.7649999999999987 -4.8159090909090905,0.6637499999999991 -4.712121212121212,0.5624999999999994" data-type="line" data-label="" points="221.3374485596708,40.00000000000014 227.316997131812,45.83333333333343 233.29654570395314,51.66666666666674 233.29654570395314,57.50000000000014 227.316997131812,63.333333333333485 227.316997131812,69.16666666666677 221.3374485596708,75.00000000000009 227.316997131812,80.8333333333334 227.316997131812,86.66666666666683 221.3374485596708,92.50000000000011 221.3374485596708,98.33333333333344 221.3374485596708,104.16666666666674 221.3374485596708,110.00000000000006 221.3374485596708,115.83333333333347 221.3374485596708,121.66666666666677 221.3374485596708,127.50000000000009 227.316997131812,133.3333333333334 233.29654570395314,139.16666666666674 239.27609427609428,145.00000000000006 245.25564284823548,150.83333333333343 251.23519142037662,156.66666666666674 257.2147399925178,162.50000000000006 257.2147399925178,168.3333333333334 263.19428856465896,174.1666666666667 269.1738371368001,180.00000000000009 275.1533857089413,185.8333333333334 281.13293428108244,191.6666666666667" fill="none" stroke="rgba(0,0,255,0.75)" stroke-width="5.761316872427983"/></g><g><polyline data-points="-4.712121212121212,0.5624999999999994 -4.6083333333333325,0.4612499999999989 -4.504545454545454,0.35999999999999927 -4.400757575757576,0.25874999999999876 -4.296969696969697,0.15749999999999914 -4.193181818181818,0.05624999999999952 -4.089393939393939,-0.045000000000000984 -3.985606060606061,-0.1462500000000006 -3.8818181818181823,-0.2475000000000011 -3.778030303030303,-0.2475000000000011 -3.6742424242424243,-0.3487500000000007 -3.5704545454545458,-0.45000000000000034 -3.466666666666667,-0.5512500000000008 -3.362878787878788,-0.6525000000000004 -3.2590909090909093,-0.5512500000000008 -3.1553030303030303,-0.45000000000000034 -3.0515151515151513,-0.3487500000000007 -2.9477272727272728,-0.45000000000000034 -2.843939393939394,-0.45000000000000034 -2.7401515151515152,-0.3487500000000007 -2.6363636363636362,-0.2475000000000011 -2.5325757575757573,-0.1462500000000006 -2.428787878787879,-0.045000000000000984 -2.325,0.05624999999999952" data-type="line" data-label="" points="281.13293428108244,191.6666666666667 287.11248285322364,197.50000000000006 293.0920314253648,203.33333333333337 299.0715799975059,209.16666666666674 305.0511285696471,215.00000000000006 311.03067714178826,220.83333333333337 317.01022571392946,226.6666666666667 322.98977428607054,232.50000000000003 328.96932285821174,238.3333333333334 334.94887143035294,238.3333333333334 340.9284200024941,244.1666666666667 346.9079685746352,250.00000000000003 352.8875171467764,255.83333333333337 358.8670657189176,261.6666666666667 364.8466142910587,255.83333333333337 370.8261628631999,250.00000000000003 376.8057114353411,244.1666666666667 382.78526000748224,250.00000000000003 388.7648085796234,250.00000000000003 394.7443571517646,244.1666666666667 400.7239057239058,238.3333333333334 406.7034542960469,232.50000000000003 412.68300286818805,226.6666666666667 418.66255144032925,220.83333333333337" fill="none" stroke="rgba(255,0,0,0.75)" stroke-width="5.761316872427983"/></g><g><polyline data-points="-2.428787878787879,-6.5249999999999995 -2.325,-6.423749999999999 -2.428787878787879,-6.322499999999999 -2.428787878787879,-6.2212499999999995 -2.428787878787879,-6.119999999999999 -2.325,-6.01875 -2.325,-5.917499999999999 -2.325,-5.816249999999999 -2.325,-5.714999999999999 -2.325,-5.61375 -2.325,-5.512499999999999 -2.325,-5.411249999999999 -2.325,-5.31 -2.428787878787879,-5.208749999999999 -2.5325757575757573,-5.107499999999999 -2.6363636363636362,-5.00625 -2.6363636363636362,-4.904999999999999 -2.6363636363636362,-4.80375 -2.6363636363636362,-4.702499999999999 -2.6363636363636362,-4.601249999999999 -2.6363636363636362,-4.5 -2.6363636363636362,-4.398750000000001 -2.6363636363636362,-4.297499999999999 -2.6363636363636362,-4.196249999999999 -2.6363636363636362,-4.095 -2.6363636363636362,-3.99375 -2.6363636363636362,-3.8925 -2.6363636363636362,-3.7912500000000002 -2.6363636363636362,-3.6900000000000004 -2.6363636363636362,-3.58875 -2.6363636363636362,-3.4875000000000003 -2.6363636363636362,-3.38625 -2.6363636363636362,-3.2850000000000006 -2.6363636363636362,-3.1837500000000003 -2.6363636363636362,-3.0825000000000005 -2.6363636363636362,-2.98125 -2.6363636363636362,-2.8800000000000003 -2.6363636363636362,-2.7787500000000005 -2.6363636363636362,-2.6775000000000007 -2.6363636363636362,-2.5762500000000004 -2.6363636363636362,-2.475000000000001 -2.6363636363636362,-2.3737500000000002 -2.6363636363636362,-2.272500000000001 -2.7401515151515152,-2.17125 -2.843939393939394,-2.0700000000000007 -2.9477272727272728,-1.9687500000000009 -3.0515151515151513,-1.8675000000000004 -3.1553030303030303,-1.7662500000000008 -3.2590909090909093,-1.7662500000000008 -3.362878787878788,-1.8675000000000004 -3.466666666666667,-1.8675000000000004 -3.5704545454545458,-1.8675000000000004 -3.6742424242424243,-1.7662500000000008 -3.778030303030303,-1.6650000000000003 -3.8818181818181823,-1.6650000000000003 -3.985606060606061,-1.6650000000000003 -4.089393939393939,-1.5637500000000006 -4.193181818181818,-1.4625000000000001 -4.296969696969697,-1.4625000000000001 -4.400757575757576,-1.4625000000000001 -4.504545454545454,-1.4625000000000001 -4.6083333333333325,-1.4625000000000001 -4.712121212121212,-1.3612500000000005 -4.8159090909090905,-1.260000000000001 -4.91969696969697,-1.1587500000000004 -5.023484848484848,-1.0575000000000008 -5.127272727272727,-0.9562500000000002 -5.231060606060606,-0.8550000000000005 -5.334848484848484,-0.7537500000000009 -5.4386363636363635,-0.6525000000000004 -5.542424242424242,-0.5512500000000008 -5.646212121212121,-0.45000000000000034 -5.646212121212121,-0.3487500000000007 -5.646212121212121,-0.2475000000000011 -5.646212121212121,-0.1462500000000006 -5.542424242424242,-0.045000000000000984 -5.4386363636363635,0.05624999999999952 -5.334848484848484,0.15749999999999914 -5.231060606060606,0.25874999999999876 -5.127272727272727,0.35999999999999927 -5.127272727272727,0.4612499999999989 -5.231060606060606,0.5624999999999994 -5.231060606060606,0.6637499999999991 -5.231060606060606,0.7649999999999987 -5.127272727272727,0.8662499999999992 -5.127272727272727,0.9674999999999988 -5.127272727272727,1.0687499999999992 -5.231060606060606,1.1699999999999988 -5.127272727272727,1.2712499999999984 -5.023484848484848,1.372499999999999 -4.91969696969697,1.4737499999999986 -4.8159090909090905,1.574999999999999 -4.712121212121212,1.6762499999999987 -4.6083333333333325,1.7774999999999983 -4.504545454545454,1.878749999999998" data-type="line" data-label="" points="412.68300286818805,600 418.66255144032925,594.1666666666665 412.68300286818805,588.3333333333333 412.68300286818805,582.5 412.68300286818805,576.6666666666665 418.66255144032925,570.8333333333333 418.66255144032925,564.9999999999999 418.66255144032925,559.1666666666665 418.66255144032925,553.3333333333333 418.66255144032925,547.5 418.66255144032925,541.6666666666666 418.66255144032925,535.8333333333333 418.66255144032925,530 412.68300286818805,524.1666666666666 406.7034542960469,518.3333333333333 400.7239057239058,512.5 400.7239057239058,506.66666666666663 400.7239057239058,500.8333333333333 400.7239057239058,494.9999999999999 400.7239057239058,489.16666666666663 400.7239057239058,483.3333333333333 400.7239057239058,477.5 400.7239057239058,471.66666666666663 400.7239057239058,465.83333333333326 400.7239057239058,460 400.7239057239058,454.16666666666663 400.7239057239058,448.3333333333333 400.7239057239058,442.5 400.7239057239058,436.6666666666667 400.7239057239058,430.8333333333333 400.7239057239058,425 400.7239057239058,419.16666666666663 400.7239057239058,413.33333333333337 400.7239057239058,407.5 400.7239057239058,401.6666666666667 400.7239057239058,395.83333333333337 400.7239057239058,390 400.7239057239058,384.1666666666667 400.7239057239058,378.33333333333337 400.7239057239058,372.5 400.7239057239058,366.66666666666674 400.7239057239058,360.83333333333337 400.7239057239058,355 394.7443571517646,349.1666666666667 388.7648085796234,343.33333333333337 382.78526000748224,337.50000000000006 376.8057114353411,331.6666666666667 370.8261628631999,325.83333333333337 364.8466142910587,325.83333333333337 358.8670657189176,331.6666666666667 352.8875171467764,331.6666666666667 346.9079685746352,331.6666666666667 340.9284200024941,325.83333333333337 334.94887143035294,320 328.96932285821174,320 322.98977428607054,320 317.01022571392946,314.1666666666667 311.03067714178826,308.33333333333337 305.0511285696471,308.33333333333337 299.0715799975059,308.33333333333337 293.0920314253648,308.33333333333337 287.11248285322364,308.33333333333337 281.13293428108244,302.5 275.1533857089413,296.66666666666674 269.1738371368001,290.83333333333337 263.19428856465896,285.00000000000006 257.2147399925178,279.1666666666667 251.23519142037662,273.33333333333337 245.25564284823548,267.50000000000006 239.27609427609428,261.6666666666667 233.29654570395314,255.83333333333337 227.316997131812,250.00000000000003 227.316997131812,244.1666666666667 227.316997131812,238.3333333333334 227.316997131812,232.50000000000003 233.29654570395314,226.6666666666667 239.27609427609428,220.83333333333337 245.25564284823548,215.00000000000006 251.23519142037662,209.16666666666674 257.2147399925178,203.33333333333337 257.2147399925178,197.50000000000006 251.23519142037662,191.6666666666667 251.23519142037662,185.8333333333334 251.23519142037662,180.00000000000009 257.2147399925178,174.1666666666667 257.2147399925178,168.3333333333334 257.2147399925178,162.50000000000006 251.23519142037662,156.66666666666674 257.2147399925178,150.83333333333343 263.19428856465896,145.00000000000006 269.1738371368001,139.16666666666674 275.1533857089413,133.3333333333334 281.13293428108244,127.50000000000009 287.11248285322364,121.66666666666677 293.0920314253648,115.83333333333347" fill="none" stroke="rgba(255,0,0,0.75)" stroke-width="5.761316872427983"/></g><g><polyline data-points="-4.504545454545454,1.878749999999998 -4.504545454545454,1.9799999999999993 -4.400757575757576,2.081249999999999 -4.296969696969697,2.1824999999999983 -4.193181818181818,2.283749999999998 -4.089393939393939,2.3849999999999976 -3.985606060606061,2.486249999999999 -3.8818181818181823,2.5874999999999986 -3.778030303030303,2.5874999999999986 -3.6742424242424243,2.6887499999999984 -3.5704545454545458,2.789999999999998 -3.466666666666667,2.8912499999999977 -3.362878787878788,2.992499999999999 -3.2590909090909093,2.8912499999999977 -3.1553030303030303,2.8912499999999977 -3.0515151515151513,2.992499999999999 -2.9477272727272728,2.992499999999999 -2.843939393939394,2.992499999999999 -2.7401515151515152,3.0937499999999987 -2.6363636363636362,3.194999999999998" data-type="line" data-label="" points="293.0920314253648,115.83333333333347 293.0920314253648,110.00000000000006 299.0715799975059,104.16666666666674 305.0511285696471,98.33333333333344 311.03067714178826,92.50000000000011 317.01022571392946,86.66666666666683 322.98977428607054,80.8333333333334 328.96932285821174,75.00000000000009 334.94887143035294,75.00000000000009 340.9284200024941,69.16666666666677 346.9079685746352,63.333333333333485 352.8875171467764,57.50000000000014 358.8670657189176,51.66666666666674 364.8466142910587,57.50000000000014 370.8261628631999,57.50000000000014 376.8057114353411,51.66666666666674 382.78526000748224,51.66666666666674 388.7648085796234,51.66666666666674 394.7443571517646,45.83333333333343 400.7239057239058,40.00000000000014" fill="none" stroke="rgba(0,0,255,0.75)" stroke-width="5.761316872427983"/></g><g><polyline data-points="-5.75,0.6637499999999991 -5.646212121212121,0.7649999999999987 -5.542424242424242,0.7649999999999987 -5.4386363636363635,0.7649999999999987 -5.334848484848484,0.6637499999999991 -5.231060606060606,0.5624999999999994 -5.127272727272727,0.4612499999999989 -5.023484848484848,0.35999999999999927 -4.91969696969697,0.25874999999999876 -4.8159090909090905,0.25874999999999876 -4.712121212121212,0.15749999999999914 -4.6083333333333325,0.05624999999999952 -4.504545454545454,0.15749999999999914 -4.400757575757576,0.25874999999999876 -4.296969696969697,0.25874999999999876 -4.193181818181818,0.35999999999999927 -4.089393939393939,0.4612499999999989 -3.985606060606061,0.4612499999999989 -3.8818181818181823,0.5624999999999994 -3.778030303030303,0.6637499999999991 -3.6742424242424243,0.7649999999999987 -3.5704545454545458,0.8662499999999992 -3.5704545454545458,0.9674999999999988 -3.466666666666667,1.0687499999999992 -3.362878787878788,1.1699999999999988" data-type="line" data-label="" points="221.3374485596708,185.8333333333334 227.316997131812,180.00000000000009 233.29654570395314,180.00000000000009 239.27609427609428,180.00000000000009 245.25564284823548,185.8333333333334 251.23519142037662,191.6666666666667 257.2147399925178,197.50000000000006 263.19428856465896,203.33333333333337 269.1738371368001,209.16666666666674 275.1533857089413,209.16666666666674 281.13293428108244,215.00000000000006 287.11248285322364,220.83333333333337 293.0920314253648,215.00000000000006 299.0715799975059,209.16666666666674 305.0511285696471,209.16666666666674 311.03067714178826,203.33333333333337 317.01022571392946,197.50000000000006 322.98977428607054,197.50000000000006 328.96932285821174,191.6666666666667 334.94887143035294,185.8333333333334 340.9284200024941,180.00000000000009 346.9079685746352,174.1666666666667 346.9079685746352,168.3333333333334 352.8875171467764,162.50000000000006 358.8670657189176,156.66666666666674" fill="none" stroke="rgba(0,0,255,0.75)" stroke-width="5.761316872427983"/></g><g><polyline data-points="-3.362878787878788,1.1699999999999988 -3.2590909090909093,1.2712499999999984 -3.1553030303030303,1.2712499999999984 -3.0515151515151513,1.372499999999999 -2.9477272727272728,1.2712499999999984 -2.843939393939394,1.1699999999999988 -2.7401515151515152,1.1699999999999988 -2.6363636363636362,1.0687499999999992 -2.5325757575757573,0.9674999999999988 -2.428787878787879,0.8662499999999992 -2.325,0.7649999999999987 -2.325,0.6637499999999991" data-type="line" data-label="" points="358.8670657189176,156.66666666666674 364.8466142910587,150.83333333333343 370.8261628631999,150.83333333333343 376.8057114353411,145.00000000000006 382.78526000748224,150.83333333333343 388.7648085796234,156.66666666666674 394.7443571517646,156.66666666666674 400.7239057239058,162.50000000000006 406.7034542960469,168.3333333333334 412.68300286818805,174.1666666666667 418.66255144032925,180.00000000000009 418.66255144032925,185.8333333333334" fill="none" stroke="rgba(255,0,0,0.75)" stroke-width="5.761316872427983"/></g><g><polyline data-points="-4.400757575757576,3.194999999999998 -4.504545454545454,3.0937499999999987 -4.6083333333333325,2.992499999999999 -4.712121212121212,2.8912499999999977 -4.712121212121212,2.789999999999998 -4.712121212121212,2.6887499999999984 -4.8159090909090905,2.5874999999999986 -4.91969696969697,2.486249999999999 -5.023484848484848,2.3849999999999976 -5.127272727272727,2.283749999999998 -5.127272727272727,2.1824999999999983 -5.127272727272727,2.081249999999999 -5.023484848484848,1.9799999999999993 -4.91969696969697,1.878749999999998 -4.8159090909090905,1.7774999999999983 -4.8159090909090905,1.6762499999999987 -4.712121212121212,1.574999999999999 -4.6083333333333325,1.4737499999999986 -4.504545454545454,1.372499999999999 -4.400757575757576,1.2712499999999984 -4.296969696969697,1.1699999999999988 -4.193181818181818,1.0687499999999992" data-type="line" data-label="" points="299.0715799975059,40.00000000000014 293.0920314253648,45.83333333333343 287.11248285322364,51.66666666666674 281.13293428108244,57.50000000000014 281.13293428108244,63.333333333333485 281.13293428108244,69.16666666666677 275.1533857089413,75.00000000000009 269.1738371368001,80.8333333333334 263.19428856465896,86.66666666666683 257.2147399925178,92.50000000000011 257.2147399925178,98.33333333333344 257.2147399925178,104.16666666666674 263.19428856465896,110.00000000000006 269.1738371368001,115.83333333333347 275.1533857089413,121.66666666666677 275.1533857089413,127.50000000000009 281.13293428108244,133.3333333333334 287.11248285322364,139.16666666666674 293.0920314253648,145.00000000000006 299.0715799975059,150.83333333333343 305.0511285696471,156.66666666666674 311.03067714178826,162.50000000000006" fill="none" stroke="rgba(0,0,255,0.75)" stroke-width="5.761316872427983"/></g><g><polyline data-points="-4.193181818181818,1.0687499999999992 -4.089393939393939,0.9674999999999988 -3.985606060606061,0.8662499999999992 -3.8818181818181823,0.7649999999999987 -3.778030303030303,0.6637499999999991 -3.6742424242424243,0.5624999999999994 -3.5704545454545458,0.4612499999999989 -3.466666666666667,0.5624999999999994 -3.362878787878788,0.4612499999999989 -3.2590909090909093,0.5624999999999994 -3.1553030303030303,0.5624999999999994 -3.0515151515151513,0.6637499999999991 -2.9477272727272728,0.5624999999999994 -2.843939393939394,0.4612499999999989 -2.7401515151515152,0.4612499999999989 -2.6363636363636362,0.35999999999999927 -2.5325757575757573,0.35999999999999927 -2.428787878787879,0.35999999999999927 -2.325,0.35999999999999927" data-type="line" data-label="" points="311.03067714178826,162.50000000000006 317.01022571392946,168.3333333333334 322.98977428607054,174.1666666666667 328.96932285821174,180.00000000000009 334.94887143035294,185.8333333333334 340.9284200024941,191.6666666666667 346.9079685746352,197.50000000000006 352.8875171467764,191.6666666666667 358.8670657189176,197.50000000000006 364.8466142910587,191.6666666666667 370.8261628631999,191.6666666666667 376.8057114353411,185.8333333333334 382.78526000748224,191.6666666666667 388.7648085796234,197.50000000000006 394.7443571517646,197.50000000000006 400.7239057239058,203.33333333333337 406.7034542960469,203.33333333333337 412.68300286818805,203.33333333333337 418.66255144032925,203.33333333333337" fill="none" stroke="rgba(255,0,0,0.75)" stroke-width="5.761316872427983"/></g><g><polyline data-points="-2.325,0.05624999999999952 -2.428787878787879,0.05624999999999952 -2.5325757575757573,0.05624999999999952 -2.6363636363636362,-0.045000000000000984 -2.7401515151515152,-0.1462500000000006 -2.843939393939394,-0.045000000000000984 -2.9477272727272728,-0.045000000000000984 -3.0515151515151513,-0.045000000000000984 -3.1553030303030303,0.05624999999999952 -3.2590909090909093,0.05624999999999952 -3.362878787878788,-0.045000000000000984 -3.466666666666667,-0.045000000000000984 -3.5704545454545458,0.05624999999999952 -3.6742424242424243,0.05624999999999952 -3.778030303030303,0.15749999999999914 -3.8818181818181823,0.25874999999999876 -3.985606060606061,0.35999999999999927 -4.089393939393939,0.4612499999999989 -4.193181818181818,0.5624999999999994 -4.296969696969697,0.6637499999999991 -4.400757575757576,0.7649999999999987 -4.504545454545454,0.8662499999999992 -4.6083333333333325,0.9674999999999988 -4.6083333333333325,1.0687499999999992 -4.6083333333333325,1.1699999999999988 -4.6083333333333325,1.2712499999999984 -4.504545454545454,1.372499999999999 -4.400757575757576,1.4737499999999986 -4.296969696969697,1.574999999999999 -4.193181818181818,1.6762499999999987 -4.089393939393939,1.7774999999999983 -3.985606060606061,1.878749999999998 -3.8818181818181823,1.878749999999998 -3.778030303030303,1.9799999999999993" data-type="line" data-label="" points="418.66255144032925,220.83333333333337 412.68300286818805,220.83333333333337 406.7034542960469,220.83333333333337 400.7239057239058,226.6666666666667 394.7443571517646,232.50000000000003 388.7648085796234,226.6666666666667 382.78526000748224,226.6666666666667 376.8057114353411,226.6666666666667 370.8261628631999,220.83333333333337 364.8466142910587,220.83333333333337 358.8670657189176,226.6666666666667 352.8875171467764,226.6666666666667 346.9079685746352,220.83333333333337 340.9284200024941,220.83333333333337 334.94887143035294,215.00000000000006 328.96932285821174,209.16666666666674 322.98977428607054,203.33333333333337 317.01022571392946,197.50000000000006 311.03067714178826,191.6666666666667 305.0511285696471,185.8333333333334 299.0715799975059,180.00000000000009 293.0920314253648,174.1666666666667 287.11248285322364,168.3333333333334 287.11248285322364,162.50000000000006 287.11248285322364,156.66666666666674 287.11248285322364,150.83333333333343 293.0920314253648,145.00000000000006 299.0715799975059,139.16666666666674 305.0511285696471,133.3333333333334 311.03067714178826,127.50000000000009 317.01022571392946,121.66666666666677 322.98977428607054,115.83333333333347 328.96932285821174,115.83333333333347 334.94887143035294,110.00000000000006" fill="none" stroke="rgba(255,0,0,0.75)" stroke-width="5.761316872427983"/></g><g><polyline data-points="-3.778030303030303,1.9799999999999993 -3.6742424242424243,2.081249999999999 -3.5704545454545458,2.1824999999999983 -3.466666666666667,2.283749999999998 -3.362878787878788,2.3849999999999976 -3.2590909090909093,2.283749999999998 -3.1553030303030303,2.3849999999999976 -3.0515151515151513,2.486249999999999 -2.9477272727272728,2.5874999999999986 -2.843939393939394,2.5874999999999986 -2.7401515151515152,2.5874999999999986 -2.6363636363636362,2.6887499999999984 -2.5325757575757573,2.789999999999998 -2.428787878787879,2.6887499999999984 -2.325,2.5874999999999986 -2.325,2.486249999999999 -2.325,2.3849999999999976 -2.325,2.283749999999998" data-type="line" data-label="" points="334.94887143035294,110.00000000000006 340.9284200024941,104.16666666666674 346.9079685746352,98.33333333333344 352.8875171467764,92.50000000000011 358.8670657189176,86.66666666666683 364.8466142910587,92.50000000000011 370.8261628631999,86.66666666666683 376.8057114353411,80.8333333333334 382.78526000748224,75.00000000000009 388.7648085796234,75.00000000000009 394.7443571517646,75.00000000000009 400.7239057239058,69.16666666666677 406.7034542960469,63.333333333333485 412.68300286818805,69.16666666666677 418.66255144032925,75.00000000000009 418.66255144032925,80.8333333333334 418.66255144032925,86.66666666666683 418.66255144032925,92.50000000000011" fill="none" stroke="rgba(0,0,255,0.75)" stroke-width="5.761316872427983"/></g><g><rect data-type="rect" data-label="" data-x="-4.0375" data-y="-1.665" x="221.3374485596708" y="40.00000000000006" width="197.32510288065845" height="560" fill="none" stroke="gray" stroke-width="0.01735714285714286"/></g><circle data-type="circle" data-label="" data-x="-3.362878787878788" data-y="-5.512499999999999" cx="358.8670657189176" cy="541.6666666666666" r="8.641975308641975" fill="rgba(0,0,0,0.3)" stroke="black" stroke-width="0.01735714285714286"/><circle data-type="circle" data-label="" data-x="-4.712121212121212" data-y="-5.512499999999999" cx="281.13293428108244" cy="541.6666666666666" r="8.641975308641975" fill="rgba(0,0,0,0.3)" stroke="black" stroke-width="0.01735714285714286"/><circle data-type="circle" data-label="" data-x="-4.712121212121212" data-y="-2.6775000000000007" cx="281.13293428108244" cy="378.33333333333337" r="8.641975308641975" fill="rgba(0,0,0,0.3)" stroke="black" stroke-width="0.01735714285714286"/><circle data-type="circle" data-label="" data-x="-4.6083333333333325" data-y="-1.7662500000000008" cx="287.11248285322364" cy="325.83333333333337" r="8.641975308641975" fill="rgba(0,0,0,0.3)" stroke="black" stroke-width="0.01735714285714286"/><circle data-type="circle" data-label="" data-x="-4.712121212121212" data-y="0.5624999999999994" cx="281.13293428108244" cy="191.6666666666667" r="8.641975308641975" fill="rgba(0,0,0,0.3)" stroke="black" stroke-width="0.01735714285714286"/><circle data-type="circle" data-label="" data-x="-4.504545454545454" data-y="1.878749999999998" cx="293.0920314253648" cy="115.83333333333347" r="8.641975308641975" fill="rgba(0,0,0,0.3)" stroke="black" stroke-width="0.01735714285714286"/><circle data-type="circle" data-label="" data-x="-3.362878787878788" data-y="1.1699999999999988" cx="358.8670657189176" cy="156.66666666666674" r="8.641975308641975" fill="rgba(0,0,0,0.3)" stroke="black" stroke-width="0.01735714285714286"/><circle data-type="circle" data-label="" data-x="-4.193181818181818" data-y="1.0687499999999992" cx="311.03067714178826" cy="162.50000000000006" r="8.641975308641975" fill="rgba(0,0,0,0.3)" stroke="black" stroke-width="0.01735714285714286"/><circle data-type="circle" data-label="" data-x="-3.778030303030303" data-y="1.9799999999999993" cx="334.94887143035294" cy="110.00000000000006" r="8.641975308641975" fill="rgba(0,0,0,0.3)" stroke="black" stroke-width="0.01735714285714286"/><g id="crosshair" style="display: none"><line id="crosshair-h" y1="0" y2="640" stroke="#666" stroke-width="0.5"/><line id="crosshair-v" x1="0" x2="640" stroke="#666" stroke-width="0.5"/><text id="coordinates" font-family="monospace" font-size="12" fill="#666"></text></g><script><![CDATA[
              document.currentScript.parentElement.addEventListener('mousemove', (e) => {
                const svg = e.currentTarget;
                const rect = svg.getBoundingClientRect();
                const x = e.clientX - rect.left;
                const y = e.clientY - rect.top;
                const crosshair = svg.getElementById('crosshair');
                const h = svg.getElementById('crosshair-h');
                const v = svg.getElementById('crosshair-v');
                const coords = svg.getElementById('coordinates');
                
                crosshair.style.display = 'block';
                h.setAttribute('x1', '0');
                h.setAttribute('x2', '640');
                h.setAttribute('y1', y);
                h.setAttribute('y2', y);
                v.setAttribute('x1', x);
                v.setAttribute('x2', x);
                v.setAttribute('y1', '0');
                v.setAttribute('y2', '640');

                // Calculate real coordinates using inverse transformation
                const matrix = {"a":57.61316872427983,"c":0,"e":552.6131687242798,"b":0,"d":-57.61316872427983,"f":224.07407407407408};
                // Manually invert and apply the affine transform
                // Since we only use translate and scale, we can directly compute:
                // x' = (x - tx) / sx
                // y' = (y - ty) / sy
                const sx = matrix.a;
                const sy = matrix.d;
                const tx = matrix.e; 
                const ty = matrix.f;
                const realPoint = {
                  x: (x - tx) / sx,
                  y: (y - ty) / sy // Flip y back since we used negative scale
                }
                
                coords.textContent = `(${realPoint.x.toFixed(2)}, ${realPoint.y.toFixed(2)})`;
                coords.setAttribute('x', (x + 5).toString());
                coords.setAttribute('y', (y - 5).toString());
              });
              document.currentScript.parentElement.addEventListener('mouseleave', () => {
                document.currentScript.parentElement.getElementById('crosshair').style.display = 'none';
              });
            ]]></script></svg>