<svg width="640" height="640" viewBox="0 0 640 640" xmlns="http://www.w3.org/2000/svg"><rect width="100%" height="100%" fill="white"/><g><circle data-type="point" data-label="source_net_11_mst1" data-x="-9.259092600000038" data-y="5.7799999999999985" cx="239.83903369762373" cy="166.81172109353335" r="3" fill="red"/></g><g><circle data-type="point" data-label="source_net_11_mst1" data-x="5.088495299999991" data-y="-1.0999976000000036" cx="600" cy="339.5171682421809" r="3" fill="red"/></g><g><circle data-type="point" data-label="source_net_9_mst0" data-x="2.6299999999999946" data-y="5.7799999999999985" cx="538.2855118874827" cy="166.81172109353335" r="3" fill="red"/></g><g><circle data-type="point" data-label="source_net_9_mst0" data-x="5.088495299999991" data-y="1.2999976000000029" cx="600" cy="279.2711815036668" r="3" fill="red"/></g><g><circle data-type="point" data-label="source_net_10_mst0" data-x="1.2949999999999946" data-y="5.7799999999999985" cx="504.77361474039003" cy="166.81172109353335" r="3" fill="red"/></g><g><circle data-type="point" data-label="source_net_10_mst0" data-x="5.088495299999991" data-y="0.4999992000000244" cx="600" cy="299.3531770831709" r="3" fill="red"/></g><g><circle data-type="point" data-label="source_net_12_mst1" data-x="-6.226364200000016" data-y="5.7799999999999985" cx="315.96823385932237" cy="166.81172109353335" r="3" fill="red"/></g><g><circle data-type="point" data-label="source_net_12_mst1" data-x="5.088495299999991" data-y="-1.8999959999999823" cx="600" cy="359.599163821685" r="3" fill="red"/></g><g><circle data-type="point" data-label="source_net_3_mst18" data-x="2.510069414285707" data-y="-6.425000000000001" cx="535.2749490011547" cy="473.18827890646673" r="3" fill="red"/></g><g><circle data-type="point" data-label="source_net_3_mst18" data-x="5.088495299999991" data-y="-5.759402349999997" cx="600" cy="456.48008415879127" r="3" fill="red"/></g><g><circle data-type="point" data-label="source_net_1_mst2" data-x="5.088495299999991" data-y="-0.2999991999999825" cx="600" cy="319.43517266267577" r="3" fill="red"/></g><g><circle data-type="point" data-label="source_net_1_mst2" data-x="5.088495299999991" data-y="0.019464411111120405" cx="600" cy="311.4158230912944" r="3" fill="blue"/></g><g><circle data-type="point" data-label="source_net_1_mst3" data-x="2.510069414285707" data-y="-6.425000000000001" cx="535.2749490011547" cy="473.18827890646673" r="3" fill="blue"/></g><g><circle data-type="point" data-label="source_net_1_mst3" data-x="5.088495299999991" data-y="-0.2999991999999825" cx="600" cy="319.43517266267577" r="3" fill="red"/></g><g><circle data-type="point" data-label="source_net_1_mst1" data-x="1.8049999999999962" data-y="5.779999999999999" cx="517.5759125269199" cy="166.81172109353332" r="3" fill="red"/></g><g><circle data-type="point" data-label="source_net_1_mst1" data-x="5.088495299999991" data-y="-0.2999991999999825" cx="600" cy="319.43517266267577" r="3" fill="red"/></g><g><circle data-type="point" data-label="source_net_0_mst14" data-x="-3.890000000000006" data-y="-6.424999999999999" cx="374.61692057733717" cy="473.1882789064667" r="3" fill="red"/></g><g><circle data-type="point" data-label="source_net_0_mst14" data-x="0.784999999999993" data-y="5.779999999999999" cx="491.9713169538602" cy="166.81172109353332" r="3" fill="red"/></g><g><polyline data-points="-9.259092600000038,5.7799999999999985 -9.27,5.725000000000001 -9.169999999999998,5.725000000000001 -9.069999999999999,5.725000000000001 -8.969999999999999,5.725000000000001 -8.869999999999997,5.725000000000001 -8.77,5.725000000000001 -8.669999999999998,5.725000000000001 -8.569999999999999,5.725000000000001 -8.469999999999999,5.725000000000001 -8.369999999999997,5.725000000000001 -8.27,5.725000000000001 -8.169999999999998,5.725000000000001 -8.069999999999999,5.725000000000001 -7.969999999999998,5.725000000000001 -7.869999999999998,5.725000000000001 -7.769999999999999,5.725000000000001 -7.669999999999998,5.725000000000001 -7.569999999999998,5.725000000000001 -7.469999999999998,5.725000000000001 -7.369999999999998,5.725000000000001 -7.269999999999999,5.725000000000001 -7.169999999999998,5.725000000000001 -7.069999999999998,5.725000000000001 -6.969999999999998,5.725000000000001 -6.869999999999998,5.725000000000001 -6.869999999999998,5.625000000000001" data-type="line" data-label="" points="239.83903369762373,166.81172109353335 239.56523020178784,168.19236105090414 242.0754846697349,168.19236105090414 244.58573913768188,168.19236105090414 247.0959936056289,168.19236105090414 249.60624807357596,168.19236105090414 252.11650254152292,168.19236105090414 254.62675700946997,168.19236105090414 257.137011477417,168.19236105090414 259.647265945364,168.19236105090414 262.15752041331103,168.19236105090414 264.66777488125797,168.19236105090414 267.1780293492051,168.19236105090414 269.68828381715207,168.19236105090414 272.19853828509906,168.19236105090414 274.7087927530461,168.19236105090414 277.2190472209931,168.19236105090414 279.72930168894015,168.19236105090414 282.23955615688715,168.19236105090414 284.74981062483414,168.19236105090414 287.2600650927812,168.19236105090414 289.7703195607282,168.19236105090414 292.28057402867523,168.19236105090414 294.7908284966222,168.19236105090414 297.3010829645692,168.19236105090414 299.81133743251627,168.19236105090414 299.81133743251627,170.70261551885116" fill="none" stroke="rgba(255,0,0,0.75)" stroke-width="2.510254467947017"/></g><g><polyline data-points="-6.869999999999998,5.625000000000001 -6.769999999999999,5.625000000000001 -6.669999999999998,5.625000000000001 -6.569999999999998,5.625000000000001 -6.469999999999998,5.625000000000001 -6.369999999999998,5.625000000000001 -6.269999999999999,5.625000000000001 -6.169999999999998,5.625000000000001 -6.069999999999998,5.625000000000001 -5.969999999999998,5.625000000000001 -5.869999999999998,5.625000000000001 -5.769999999999999,5.625000000000001 -5.669999999999998,5.625000000000001 -5.569999999999998,5.625000000000001 -5.469999999999998,5.625000000000001 -5.369999999999998,5.625000000000001 -5.269999999999999,5.625000000000001 -5.169999999999998,5.625000000000001 -5.069999999999998,5.625000000000001 -4.969999999999998,5.625000000000001 -4.869999999999998,5.625000000000001 -4.769999999999999,5.625000000000001 -4.769999999999999,5.525 -4.769999999999999,5.425000000000001 -4.769999999999999,5.325000000000001 -4.769999999999999,5.225000000000001 -4.769999999999999,5.125000000000001 -4.619999999999998,4.925000000000001 -4.619999999999998,4.575000000000001 -4.219999999999998,4.575000000000001 -3.8199999999999976,4.575000000000001 -3.419999999999998,4.575000000000001 -3.0199999999999987,4.575000000000001 -2.6199999999999983,4.575000000000001 -2.219999999999998,4.575000000000001 -2.219999999999998,4.175000000000001 -2.219999999999998,3.7750000000000004 -2.219999999999998,3.375000000000001 -2.219999999999998,2.9750000000000014 -2.219999999999998,2.575000000000001 -1.8199999999999976,2.575000000000001 -1.4199999999999982,2.575000000000001 -1.0199999999999978,2.575000000000001 -0.6199999999999974,2.575000000000001 -0.21999999999999886,2.575000000000001 -0.21999999999999886,2.1750000000000007" data-type="line" data-label="" points="299.81133743251627,170.70261551885116 302.32159190046326,170.70261551885116 304.8318463684103,170.70261551885116 307.3421008363573,170.70261551885116 309.85235530430435,170.70261551885116 312.36260977225135,170.70261551885116 314.8728642401984,170.70261551885116 317.3831187081454,170.70261551885116 319.8933731760924,170.70261551885116 322.40362764403943,170.70261551885116 324.9138821119864,170.70261551885116 327.4241365799335,170.70261551885116 329.93439104788047,170.70261551885116 332.44464551582746,170.70261551885116 334.9548999837745,170.70261551885116 337.46515445172156,170.70261551885116 339.97540891966855,170.70261551885116 342.48566338761555,170.70261551885116 344.9959178555626,170.70261551885116 347.5061723235096,170.70261551885116 350.0164267914566,170.70261551885116 352.52668125940363,170.70261551885116 352.52668125940363,173.21286998679818 352.52668125940363,175.7231244547452 352.52668125940363,178.2333789226922 352.52668125940363,180.74363339063922 352.52668125940363,183.25388785858624 356.2920629613242,188.27439679448028 356.2920629613242,197.06028743229484 366.3330808331122,197.06028743229484 376.3740987049003,197.06028743229484 386.4151165766883,197.06028743229484 396.4561344484764,197.06028743229484 406.4971523202645,197.06028743229484 416.5381701920526,197.06028743229484 416.5381701920526,207.10130530408293 416.5381701920526,217.14232317587098 416.5381701920526,227.18334104765904 416.5381701920526,237.2243589194471 416.5381701920526,247.26537679123516 426.5791880638406,247.26537679123516 436.6202059356287,247.26537679123516 446.6612238074168,247.26537679123516 456.70224167920486,247.26537679123516 466.7432595509929,247.26537679123516 466.7432595509929,257.30639466302324" fill="none" stroke="rgba(0,0,255,0.75)" stroke-width="2.510254467947017"/></g><g><polyline data-points="-0.21999999999999886,2.1750000000000007 0.1800000000000015,2.1750000000000007 0.5800000000000018,2.1750000000000007 0.5800000000000018,1.7750000000000004 0.9800000000000022,1.7750000000000004 0.9800000000000022,1.3750000000000004 1.3800000000000026,1.3750000000000004 1.3800000000000026,0.9750000000000005 1.780000000000003,0.9750000000000005 1.780000000000003,0.5750000000000006 2.1800000000000033,0.5750000000000006 2.1800000000000033,0.1750000000000007 2.580000000000002,0.1750000000000007 2.580000000000002,-0.22499999999999964 2.980000000000002,-0.22499999999999964 2.980000000000002,-0.6249999999999996 3.3800000000000026,-0.6249999999999996 3.3800000000000026,-1.0249999999999995 3.780000000000003,-1.0249999999999995 4.180000000000003,-1.0249999999999995 4.430000000000003,-0.8749999999999996 4.530000000000003,-0.8749999999999996 4.630000000000003,-0.8749999999999996 4.730000000000002,-0.8749999999999996 4.730000000000002,-0.9749999999999996 4.830000000000002,-0.9749999999999996 4.830000000000002,-1.0749999999999993 4.930000000000003,-1.0749999999999993 4.930000000000003,-1.1749999999999994 5.030000000000003,-1.1749999999999994 5.0842476499999965,-1.1749999999999994 5.088495299999991,-1.0999976000000036" data-type="line" data-label="" points="466.7432595509929,257.30639466302324 476.7842774227809,257.30639466302324 486.825295294569,257.30639466302324 486.825295294569,267.3474125348113 496.8663131663571,267.3474125348113 496.8663131663571,277.38843040659935 506.9073310381452,277.38843040659935 506.9073310381452,287.42944827838744 516.9483489099332,287.42944827838744 516.9483489099332,297.4704661501755 526.9893667817213,297.4704661501755 526.9893667817213,307.51148402196355 537.0303846535094,307.51148402196355 537.0303846535094,317.55250189375164 547.0714025252975,317.55250189375164 547.0714025252975,327.5935197655397 557.1124203970855,327.5935197655397 557.1124203970855,337.6345376373278 567.1534382688735,337.6345376373278 577.1944561406617,337.6345376373278 583.4700923105293,333.86915593540726 585.9803467784762,333.86915593540726 588.4906012464232,333.86915593540726 591.0008557143702,333.86915593540726 591.0008557143702,336.37941040335426 593.5111101823172,336.37941040335426 593.5111101823172,338.8896648713013 596.0213646502643,338.8896648713013 596.0213646502643,341.3999193392483 598.5316191182113,341.3999193392483 599.8933731760924,341.3999193392483 600,339.5171682421809" fill="none" stroke="rgba(255,0,0,0.75)" stroke-width="2.510254467947017"/></g><g><polyline data-points="2.6299999999999946,5.7799999999999985 2.6300000000000026,5.725000000000001 2.6300000000000026,5.625000000000001 2.6300000000000026,5.525 2.6300000000000026,5.425000000000001 2.6300000000000026,5.325000000000001 2.6300000000000026,5.225000000000001 2.6300000000000026,5.125000000000001 2.730000000000002,5.125000000000001 2.830000000000002,5.125000000000001 2.980000000000002,4.925000000000001 2.980000000000002,4.575000000000001 2.980000000000002,4.175000000000001 2.980000000000002,3.7750000000000004 2.980000000000002,3.375000000000001 3.3800000000000026,3.375000000000001 3.3800000000000026,2.9750000000000014 3.780000000000003,2.9750000000000014 3.780000000000003,2.575000000000001 4.180000000000003,2.575000000000001 4.430000000000003,2.4250000000000007 4.430000000000003,2.325000000000001 4.430000000000003,2.2250000000000005 4.430000000000003,2.125 4.430000000000003,2.0250000000000004 4.430000000000003,1.9250000000000007 4.530000000000003,1.9250000000000007 4.530000000000003,1.825000000000001 4.630000000000003,1.825000000000001 4.630000000000003,1.7250000000000005 4.730000000000002,1.7250000000000005 4.730000000000002,1.625 4.830000000000002,1.625 4.830000000000002,1.5250000000000004 4.930000000000003,1.5250000000000004 4.930000000000003,1.4250000000000007 5.030000000000003,1.4250000000000007 5.030000000000003,1.3250000000000006 5.088495299999991,1.2999976000000029" data-type="line" data-label="" points="538.2855118874827,166.81172109353335 538.2855118874829,168.19236105090414 538.2855118874829,170.70261551885116 538.2855118874829,173.21286998679818 538.2855118874829,175.7231244547452 538.2855118874829,178.2333789226922 538.2855118874829,180.74363339063922 538.2855118874829,183.25388785858624 540.7957663554299,183.25388785858624 543.3060208233769,183.25388785858624 547.0714025252975,188.27439679448028 547.0714025252975,197.06028743229484 547.0714025252975,207.10130530408293 547.0714025252975,217.14232317587098 547.0714025252975,227.18334104765904 557.1124203970855,227.18334104765904 557.1124203970855,237.2243589194471 567.1534382688735,237.2243589194471 567.1534382688735,247.26537679123516 577.1944561406617,247.26537679123516 583.4700923105293,251.0307584931557 583.4700923105293,253.5410129611027 583.4700923105293,256.05126742904974 583.4700923105293,258.5615218969968 583.4700923105293,261.0717763649438 583.4700923105293,263.5820308328908 585.9803467784762,263.5820308328908 585.9803467784762,266.0922853008378 588.4906012464232,266.0922853008378 588.4906012464232,268.6025397687848 591.0008557143702,268.6025397687848 591.0008557143702,271.1127942367319 593.5111101823172,271.1127942367319 593.5111101823172,273.62304870467887 596.0213646502643,273.62304870467887 596.0213646502643,276.13330317262586 598.5316191182113,276.13330317262586 598.5316191182113,278.6435576405729 600,279.2711815036668" fill="none" stroke="rgba(255,0,0,0.75)" stroke-width="2.510254467947017"/></g><g><polyline data-points="1.2949999999999946,5.7799999999999985 1.3300000000000018,5.725000000000001 1.3300000000000018,5.625000000000001 1.3300000000000018,5.525 1.3300000000000018,5.425000000000001 1.3300000000000018,5.325000000000001 1.3300000000000018,5.225000000000001 1.3300000000000018,5.125000000000001 1.3800000000000026,4.925000000000001 1.3800000000000026,4.575000000000001 1.3800000000000026,4.175000000000001" data-type="line" data-label="" points="504.77361474039003,166.81172109353335 505.6522038041716,168.19236105090414 505.6522038041716,170.70261551885116 505.6522038041716,173.21286998679818 505.6522038041716,175.7231244547452 505.6522038041716,178.2333789226922 505.6522038041716,180.74363339063922 505.6522038041716,183.25388785858624 506.9073310381452,188.27439679448028 506.9073310381452,197.06028743229484 506.9073310381452,207.10130530408293" fill="none" stroke="rgba(255,0,0,0.75)" stroke-width="2.510254467947017"/></g><g><polyline data-points="1.3800000000000026,4.175000000000001 1.780000000000003,4.175000000000001 1.780000000000003,3.7750000000000004 2.1800000000000033,3.7750000000000004 2.1800000000000033,3.375000000000001 2.580000000000002,3.375000000000001 2.580000000000002,2.9750000000000014 2.980000000000002,2.9750000000000014 2.980000000000002,2.575000000000001 3.3800000000000026,2.575000000000001 3.3800000000000026,2.1750000000000007 3.780000000000003,2.1750000000000007 3.780000000000003,1.7750000000000004 4.180000000000003,1.7750000000000004 4.430000000000003,1.625 4.430000000000003,1.5250000000000004 4.430000000000003,1.4250000000000007 4.430000000000003,1.3250000000000006 4.430000000000003,1.2250000000000005 4.430000000000003,1.1250000000000004 4.530000000000003,1.1250000000000004 4.530000000000003,1.0250000000000004 4.630000000000003,1.0250000000000004 4.630000000000003,0.9250000000000007 4.730000000000002,0.9250000000000007 4.730000000000002,0.8250000000000006 4.830000000000002,0.8250000000000006 4.830000000000002,0.7250000000000005 4.930000000000003,0.7250000000000005 4.930000000000003,0.6250000000000004" data-type="line" data-label="" points="506.9073310381452,207.10130530408293 516.9483489099332,207.10130530408293 516.9483489099332,217.14232317587098 526.9893667817213,217.14232317587098 526.9893667817213,227.18334104765904 537.0303846535094,227.18334104765904 537.0303846535094,237.2243589194471 547.0714025252975,237.2243589194471 547.0714025252975,247.26537679123516 557.1124203970855,247.26537679123516 557.1124203970855,257.30639466302324 567.1534382688735,257.30639466302324 567.1534382688735,267.3474125348113 577.1944561406617,267.3474125348113 583.4700923105293,271.1127942367319 583.4700923105293,273.62304870467887 583.4700923105293,276.13330317262586 583.4700923105293,278.6435576405729 583.4700923105293,281.1538121085199 583.4700923105293,283.66406657646695 585.9803467784762,283.66406657646695 585.9803467784762,286.17432104441394 588.4906012464232,286.17432104441394 588.4906012464232,288.68457551236094 591.0008557143702,288.68457551236094 591.0008557143702,291.194829980308 593.5111101823172,291.194829980308 593.5111101823172,293.705084448255 596.0213646502643,293.705084448255 596.0213646502643,296.21533891620203" fill="none" stroke="rgba(0,0,255,0.75)" stroke-width="2.510254467947017"/></g><g><polyline data-points="4.930000000000003,0.6250000000000004 5.030000000000003,0.6250000000000004 5.030000000000003,0.5250000000000004 5.088495299999991,0.4999992000000244" data-type="line" data-label="" points="596.0213646502643,296.21533891620203 598.5316191182113,296.21533891620203 598.5316191182113,298.725593384149 600,299.3531770831709" fill="none" stroke="rgba(255,0,0,0.75)" stroke-width="2.510254467947017"/></g><g><polyline data-points="-6.226364200000016,5.7799999999999985 -6.169999999999998,5.7775 -6.069999999999998,5.7775 -5.969999999999998,5.7775 -5.869999999999998,5.7775 -5.769999999999999,5.7775 -5.669999999999998,5.7775 -5.569999999999998,5.7775 -5.469999999999998,5.7775 -5.369999999999998,5.7775 -5.269999999999999,5.7775 -5.169999999999998,5.7775 -5.069999999999998,5.7775 -4.969999999999998,5.7775 -4.869999999999998,5.7775 -4.769999999999999,5.7775 -4.669999999999998,5.7775 -4.569999999999998,5.7775 -4.469999999999998,5.7775 -4.369999999999998,5.7775 -4.269999999999999,5.7775 -4.169999999999998,5.7775 -4.069999999999998,5.7775 -3.969999999999998,5.7775 -3.8699999999999983,5.7775 -3.7699999999999987,5.7775 -3.669999999999998,5.7775 -3.5699999999999976,5.7775 -3.469999999999998,5.7775 -3.469999999999998,5.725000000000001 -3.3699999999999983,5.725000000000001 -3.2699999999999987,5.725000000000001 -3.169999999999998,5.725000000000001 -3.169999999999998,5.625000000000001 -3.169999999999998,5.525 -3.169999999999998,5.425000000000001 -3.169999999999998,5.325000000000001 -3.169999999999998,5.225000000000001 -3.169999999999998,5.125000000000001 -3.0199999999999987,4.925000000000001 -3.0199999999999987,4.575000000000001 -3.0199999999999987,4.175000000000001 -3.0199999999999987,3.7750000000000004" data-type="line" data-label="" points="315.96823385932237,166.81172109353335 317.3831187081454,166.87447745523198 319.8933731760924,166.87447745523198 322.40362764403943,166.87447745523198 324.9138821119864,166.87447745523198 327.4241365799335,166.87447745523198 329.93439104788047,166.87447745523198 332.44464551582746,166.87447745523198 334.9548999837745,166.87447745523198 337.46515445172156,166.87447745523198 339.97540891966855,166.87447745523198 342.48566338761555,166.87447745523198 344.9959178555626,166.87447745523198 347.5061723235096,166.87447745523198 350.0164267914566,166.87447745523198 352.52668125940363,166.87447745523198 355.0369357273506,166.87447745523198 357.5471901952977,166.87447745523198 360.05744466324467,166.87447745523198 362.5676991311917,166.87447745523198 365.0779535991387,166.87447745523198 367.5882080670857,166.87447745523198 370.09846253503275,166.87447745523198 372.60871700297974,166.87447745523198 375.1189714709268,166.87447745523198 377.6292259388738,166.87447745523198 380.1394804068208,166.87447745523198 382.64973487476783,166.87447745523198 385.1599893427148,166.87447745523198 385.1599893427148,168.19236105090414 387.6702438106619,168.19236105090414 390.18049827860887,168.19236105090414 392.69075274655586,168.19236105090414 392.69075274655586,170.70261551885116 392.69075274655586,173.21286998679818 392.69075274655586,175.7231244547452 392.69075274655586,178.2333789226922 392.69075274655586,180.74363339063922 392.69075274655586,183.25388785858624 396.4561344484764,188.27439679448028 396.4561344484764,197.06028743229484 396.4561344484764,207.10130530408293 396.4561344484764,217.14232317587098" fill="none" stroke="rgba(255,0,0,0.75)" stroke-width="2.510254467947017"/></g><g><polyline data-points="-3.0199999999999987,3.7750000000000004 -2.6199999999999983,3.7750000000000004 -2.6199999999999983,3.375000000000001 -2.6199999999999983,2.9750000000000014 -2.6199999999999983,2.575000000000001 -2.6199999999999983,2.1750000000000007 -2.219999999999998,2.1750000000000007 -1.8199999999999976,2.1750000000000007 -1.4199999999999982,2.1750000000000007 -1.4199999999999982,1.7750000000000004" data-type="line" data-label="" points="396.4561344484764,217.14232317587098 406.4971523202645,217.14232317587098 406.4971523202645,227.18334104765904 406.4971523202645,237.2243589194471 406.4971523202645,247.26537679123516 406.4971523202645,257.30639466302324 416.5381701920526,257.30639466302324 426.5791880638406,257.30639466302324 436.6202059356287,257.30639466302324 436.6202059356287,267.3474125348113" fill="none" stroke="rgba(0,0,255,0.75)" stroke-width="2.510254467947017"/></g><g><polyline data-points="-1.4199999999999982,1.7750000000000004 -1.0199999999999978,1.7750000000000004 -1.0199999999999978,1.3750000000000004 -0.6199999999999974,1.3750000000000004 -0.21999999999999886,1.3750000000000004 0.1800000000000015,1.3750000000000004 0.5800000000000018,1.3750000000000004 0.5800000000000018,0.9750000000000005 0.9800000000000022,0.9750000000000005 0.9800000000000022,0.5750000000000006 1.3800000000000026,0.5750000000000006 1.3800000000000026,0.1750000000000007 1.780000000000003,0.1750000000000007 1.780000000000003,-0.22499999999999964 2.1800000000000033,-0.22499999999999964 2.1800000000000033,-0.6249999999999996 2.580000000000002,-0.6249999999999996 2.580000000000002,-1.0249999999999995 2.980000000000002,-1.0249999999999995 2.980000000000002,-1.4249999999999994 3.3800000000000026,-1.4249999999999994 3.780000000000003,-1.4249999999999994 4.180000000000003,-1.4249999999999994 4.430000000000003,-1.5749999999999993 4.530000000000003,-1.5749999999999993 4.630000000000003,-1.5749999999999993 4.630000000000003,-1.6749999999999994 4.730000000000002,-1.6749999999999994 4.730000000000002,-1.7749999999999995 4.830000000000002,-1.7749999999999995 4.830000000000002,-1.8749999999999996 4.930000000000003,-1.8749999999999996 4.930000000000003,-1.9749999999999996 5.030000000000003,-1.9749999999999996 5.0842476499999965,-1.9749999999999996 5.088495299999991,-1.8999959999999823" data-type="line" data-label="" points="436.6202059356287,267.3474125348113 446.6612238074168,267.3474125348113 446.6612238074168,277.38843040659935 456.70224167920486,277.38843040659935 466.7432595509929,277.38843040659935 476.7842774227809,277.38843040659935 486.825295294569,277.38843040659935 486.825295294569,287.42944827838744 496.8663131663571,287.42944827838744 496.8663131663571,297.4704661501755 506.9073310381452,297.4704661501755 506.9073310381452,307.51148402196355 516.9483489099332,307.51148402196355 516.9483489099332,317.55250189375164 526.9893667817213,317.55250189375164 526.9893667817213,327.5935197655397 537.0303846535094,327.5935197655397 537.0303846535094,337.6345376373278 547.0714025252975,337.6345376373278 547.0714025252975,347.67555550911584 557.1124203970855,347.67555550911584 567.1534382688735,347.67555550911584 577.1944561406617,347.67555550911584 583.4700923105293,351.4409372110364 585.9803467784762,351.4409372110364 588.4906012464232,351.4409372110364 588.4906012464232,353.9511916789834 591.0008557143702,353.9511916789834 591.0008557143702,356.4614461469304 593.5111101823172,356.4614461469304 593.5111101823172,358.9717006148774 596.0213646502643,358.9717006148774 596.0213646502643,361.48195508282447 598.5316191182113,361.48195508282447 599.8933731760924,361.48195508282447 600,359.599163821685" fill="none" stroke="rgba(255,0,0,0.75)" stroke-width="2.510254467947017"/></g><g><polyline data-points="2.510069414285707,-6.425000000000001 2.6300000000000026,-6.375 2.730000000000002,-6.375 2.830000000000002,-6.375 2.9300000000000033,-6.375 3.030000000000003,-6.375 3.1300000000000026,-6.375 3.230000000000002,-6.375 3.330000000000002,-6.375 3.4300000000000033,-6.375 3.530000000000003,-6.375 3.6300000000000026,-6.375 3.730000000000002,-6.375 3.830000000000002,-6.375 3.9300000000000033,-6.375 4.030000000000003,-6.375 4.130000000000003,-6.375 4.230000000000002,-6.375 4.330000000000002,-6.375 4.430000000000003,-6.375 4.530000000000003,-6.375 4.530000000000003,-6.275 4.630000000000003,-6.275 4.630000000000003,-6.175 4.730000000000002,-6.175 4.730000000000002,-6.074999999999999 4.830000000000002,-6.074999999999999 4.830000000000002,-5.975 4.930000000000003,-5.975 4.930000000000003,-5.875 5.030000000000003,-5.875 5.030000000000003,-5.7749999999999995 5.088495299999991,-5.759402349999997" data-type="line" data-label="" points="535.2749490011547,473.18827890646673 538.2855118874829,471.9331516724932 540.7957663554299,471.9331516724932 543.3060208233769,471.9331516724932 545.8162752913239,471.9331516724932 548.3265297592709,471.9331516724932 550.836784227218,471.9331516724932 553.347038695165,471.9331516724932 555.857293163112,471.9331516724932 558.367547631059,471.9331516724932 560.877802099006,471.9331516724932 563.3880565669531,471.9331516724932 565.8983110349001,471.9331516724932 568.4085655028471,471.9331516724932 570.9188199707942,471.9331516724932 573.4290744387412,471.9331516724932 575.9393289066882,471.9331516724932 578.4495833746352,471.9331516724932 580.9598378425821,471.9331516724932 583.4700923105293,471.9331516724932 585.9803467784762,471.9331516724932 585.9803467784762,469.4228972045462 588.4906012464232,469.4228972045462 588.4906012464232,466.9126427365992 591.0008557143702,466.9126427365992 591.0008557143702,464.4023882686521 593.5111101823172,464.4023882686521 593.5111101823172,461.8921338007051 596.0213646502643,461.8921338007051 596.0213646502643,459.3818793327581 598.5316191182113,459.3818793327581 598.5316191182113,456.8716248648111 600,456.48008415879127" fill="none" stroke="rgba(255,0,0,0.75)" stroke-width="2.510254467947017"/></g><g><polyline data-points="5.088495299999991,-0.2999991999999825 5.0842476499999965,-0.17499999999999938 5.030000000000003,-0.17499999999999938 4.930000000000003,-0.17499999999999938" data-type="line" data-label="" points="600,319.43517266267577 599.8933731760924,316.29737465977814 598.5316191182113,316.29737465977814 596.0213646502643,316.29737465977814" fill="none" stroke="rgba(255,0,0,0.75)" stroke-width="2.510254467947017"/></g><g><polyline data-points="4.930000000000003,-0.17499999999999938 4.930000000000003,-0.07499999999999929 5.030000000000003,-0.07499999999999929 5.030000000000003,0.025000000000000355 5.088495299999991,0.019464411111120405" data-type="line" data-label="" points="596.0213646502643,316.29737465977814 596.0213646502643,313.78712019183115 598.5316191182113,313.78712019183115 598.5316191182113,311.2768657238841 600,311.4158230912944" fill="none" stroke="rgba(0,0,255,0.75)" stroke-width="2.510254467947017"/></g><g><polyline data-points="2.510069414285707,-6.425000000000001 2.530000000000003,-6.275 2.530000000000003,-6.175 2.530000000000003,-6.074999999999999 2.530000000000003,-5.975 2.530000000000003,-5.875 2.530000000000003,-5.7749999999999995 2.530000000000003,-5.675 2.580000000000002,-5.425 2.580000000000002,-5.0249999999999995 2.580000000000002,-4.625 2.580000000000002,-4.225 2.580000000000002,-3.8249999999999993 2.580000000000002,-3.425 2.580000000000002,-3.0249999999999995 2.580000000000002,-2.625 2.980000000000002,-2.625 2.980000000000002,-2.2249999999999996 3.3800000000000026,-2.2249999999999996 3.3800000000000026,-1.8249999999999993 3.780000000000003,-1.8249999999999993 3.780000000000003,-1.4249999999999994 4.180000000000003,-1.4249999999999994 4.180000000000003,-1.0249999999999995 4.180000000000003,-0.6249999999999996 4.180000000000003,-0.22499999999999964 4.430000000000003,-0.27499999999999947 4.530000000000003,-0.27499999999999947" data-type="line" data-label="" points="535.2749490011547,473.18827890646673 535.7752574195358,469.4228972045462 535.7752574195358,466.9126427365992 535.7752574195358,464.4023882686521 535.7752574195358,461.8921338007051 535.7752574195358,459.3818793327581 535.7752574195358,456.8716248648111 535.7752574195358,454.36137039686406 537.0303846535094,448.0857342269965 537.0303846535094,438.04471635520844 537.0303846535094,428.0036984834204 537.0303846535094,417.9626806116323 537.0303846535094,407.92166273984424 537.0303846535094,397.8806448680562 537.0303846535094,387.8396269962681 537.0303846535094,377.7986091244801 547.0714025252975,377.7986091244801 547.0714025252975,367.757591252692 557.1124203970855,367.757591252692 557.1124203970855,357.7165733809039 567.1534382688735,357.7165733809039 567.1534382688735,347.67555550911584 577.1944561406617,347.67555550911584 577.1944561406617,337.6345376373278 577.1944561406617,327.5935197655397 577.1944561406617,317.55250189375164 583.4700923105293,318.80762912772514 585.9803467784762,318.80762912772514" fill="none" stroke="rgba(0,0,255,0.75)" stroke-width="2.510254467947017"/></g><g><polyline data-points="4.530000000000003,-0.27499999999999947 4.630000000000003,-0.27499999999999947 4.730000000000002,-0.27499999999999947 4.830000000000002,-0.27499999999999947 4.930000000000003,-0.27499999999999947 5.030000000000003,-0.27499999999999947 5.088495299999991,-0.2999991999999825" data-type="line" data-label="" points="585.9803467784762,318.80762912772514 588.4906012464232,318.80762912772514 591.0008557143702,318.80762912772514 593.5111101823172,318.80762912772514 596.0213646502643,318.80762912772514 598.5316191182113,318.80762912772514 600,319.43517266267577" fill="none" stroke="rgba(255,0,0,0.75)" stroke-width="2.510254467947017"/></g><g><polyline data-points="1.8049999999999962,5.779999999999999 1.9300000000000033,5.7775 1.9300000000000033,5.725000000000001 1.9300000000000033,5.625000000000001 1.9300000000000033,5.525 1.9300000000000033,5.425000000000001 1.9300000000000033,5.325000000000001 1.9300000000000033,5.225000000000001 2.030000000000003,5.225000000000001 2.1300000000000026,5.225000000000001 2.1300000000000026,5.125000000000001 2.1800000000000033,4.925000000000001 2.580000000000002,4.925000000000001 2.580000000000002,4.575000000000001 2.580000000000002,4.175000000000001 2.580000000000002,3.7750000000000004 2.580000000000002,3.375000000000001 2.580000000000002,2.9750000000000014 2.980000000000002,2.9750000000000014 2.980000000000002,2.575000000000001 3.3800000000000026,2.575000000000001 3.3800000000000026,2.1750000000000007 3.780000000000003,2.1750000000000007 3.780000000000003,1.7750000000000004 3.780000000000003,1.3750000000000004 4.180000000000003,1.3750000000000004 4.430000000000003,1.2250000000000005 4.430000000000003,1.1250000000000004 4.430000000000003,1.0250000000000004 4.430000000000003,0.9250000000000007 4.530000000000003,0.9250000000000007 4.530000000000003,0.8250000000000006 4.530000000000003,0.7250000000000005 4.530000000000003,0.6250000000000004 4.530000000000003,0.5250000000000004 4.530000000000003,0.4250000000000007 4.530000000000003,0.3250000000000006 4.630000000000003,0.3250000000000006 4.630000000000003,0.22500000000000053 4.730000000000002,0.22500000000000053 4.830000000000002,0.22500000000000053 4.830000000000002,0.12500000000000044 4.930000000000003,0.12500000000000044 4.930000000000003,0.025000000000000355 5.030000000000003,0.025000000000000355 5.030000000000003,-0.07499999999999929 5.0842476499999965,-0.07499999999999929 5.0842476499999965,-0.17499999999999938 5.088495299999991,-0.2999991999999825" data-type="line" data-label="" points="517.5759125269199,166.81172109353332 520.7137306118537,166.87447745523198 520.7137306118537,168.19236105090414 520.7137306118537,170.70261551885116 520.7137306118537,173.21286998679818 520.7137306118537,175.7231244547452 520.7137306118537,178.2333789226922 520.7137306118537,180.74363339063922 523.2239850798007,180.74363339063922 525.7342395477478,180.74363339063922 525.7342395477478,183.25388785858624 526.9893667817213,188.27439679448028 537.0303846535094,188.27439679448028 537.0303846535094,197.06028743229484 537.0303846535094,207.10130530408293 537.0303846535094,217.14232317587098 537.0303846535094,227.18334104765904 537.0303846535094,237.2243589194471 547.0714025252975,237.2243589194471 547.0714025252975,247.26537679123516 557.1124203970855,247.26537679123516 557.1124203970855,257.30639466302324 567.1534382688735,257.30639466302324 567.1534382688735,267.3474125348113 567.1534382688735,277.38843040659935 577.1944561406617,277.38843040659935 583.4700923105293,281.1538121085199 583.4700923105293,283.66406657646695 583.4700923105293,286.17432104441394 583.4700923105293,288.68457551236094 585.9803467784762,288.68457551236094 585.9803467784762,291.194829980308 585.9803467784762,293.705084448255 585.9803467784762,296.21533891620203 585.9803467784762,298.725593384149 585.9803467784762,301.235847852096 585.9803467784762,303.74610232004306 588.4906012464232,303.74610232004306 588.4906012464232,306.25635678799006 591.0008557143702,306.25635678799006 593.5111101823172,306.25635678799006 593.5111101823172,308.7666112559371 596.0213646502643,308.7666112559371 596.0213646502643,311.2768657238841 598.5316191182113,311.2768657238841 598.5316191182113,313.78712019183115 599.8933731760924,313.78712019183115 599.8933731760924,316.29737465977814 600,319.43517266267577" fill="none" stroke="rgba(255,0,0,0.75)" stroke-width="2.510254467947017"/></g><g><polyline data-points="-3.890000000000006,-6.424999999999999 -3.8699999999999983,-6.275 -3.8699999999999983,-6.175 -3.8699999999999983,-6.074999999999999 -3.8699999999999983,-5.975 -3.8699999999999983,-5.875 -3.8699999999999983,-5.7749999999999995 -3.8699999999999983,-5.675 -3.8199999999999976,-5.425 -3.8199999999999976,-5.0249999999999995 -3.8199999999999976,-4.625 -3.8199999999999976,-4.225 -3.8199999999999976,-3.8249999999999993 -3.8199999999999976,-3.425 -3.8199999999999976,-3.0249999999999995 -3.8199999999999976,-2.625 -3.8199999999999976,-2.2249999999999996 -3.8199999999999976,-1.8249999999999993 -3.8199999999999976,-1.4249999999999994 -3.8199999999999976,-1.0249999999999995 -3.8199999999999976,-0.6249999999999996 -3.8199999999999976,-0.22499999999999964 -3.8199999999999976,0.1750000000000007 -3.8199999999999976,0.5750000000000006 -3.8199999999999976,0.9750000000000005 -3.8199999999999976,1.3750000000000004 -3.419999999999998,1.3750000000000004 -3.419999999999998,1.7750000000000004 -3.0199999999999987,1.7750000000000004 -3.0199999999999987,2.1750000000000007 -2.6199999999999983,2.1750000000000007 -2.6199999999999983,2.575000000000001 -2.219999999999998,2.575000000000001 -2.219999999999998,2.9750000000000014 -1.8199999999999976,2.9750000000000014 -1.8199999999999976,3.375000000000001 -1.4199999999999982,3.375000000000001" data-type="line" data-label="" points="374.61692057733717,473.1882789064667 375.1189714709268,469.4228972045462 375.1189714709268,466.9126427365992 375.1189714709268,464.4023882686521 375.1189714709268,461.8921338007051 375.1189714709268,459.3818793327581 375.1189714709268,456.8716248648111 375.1189714709268,454.36137039686406 376.3740987049003,448.0857342269965 376.3740987049003,438.04471635520844 376.3740987049003,428.0036984834204 376.3740987049003,417.9626806116323 376.3740987049003,407.92166273984424 376.3740987049003,397.8806448680562 376.3740987049003,387.8396269962681 376.3740987049003,377.7986091244801 376.3740987049003,367.757591252692 376.3740987049003,357.7165733809039 376.3740987049003,347.67555550911584 376.3740987049003,337.6345376373278 376.3740987049003,327.5935197655397 376.3740987049003,317.55250189375164 376.3740987049003,307.51148402196355 376.3740987049003,297.4704661501755 376.3740987049003,287.42944827838744 376.3740987049003,277.38843040659935 386.4151165766883,277.38843040659935 386.4151165766883,267.3474125348113 396.4561344484764,267.3474125348113 396.4561344484764,257.30639466302324 406.4971523202645,257.30639466302324 406.4971523202645,247.26537679123516 416.5381701920526,247.26537679123516 416.5381701920526,237.2243589194471 426.5791880638406,237.2243589194471 426.5791880638406,227.18334104765904 436.6202059356287,227.18334104765904" fill="none" stroke="rgba(255,0,0,0.75)" stroke-width="2.510254467947017"/></g><g><polyline data-points="-1.4199999999999982,3.375000000000001 -1.4199999999999982,3.7750000000000004 -1.0199999999999978,3.7750000000000004 -1.0199999999999978,4.175000000000001 -0.6199999999999974,4.175000000000001 -0.6199999999999974,4.575000000000001 -0.6199999999999974,4.925000000000001 -0.46999999999999886,5.125000000000001" data-type="line" data-label="" points="436.6202059356287,227.18334104765904 436.6202059356287,217.14232317587098 446.6612238074168,217.14232317587098 446.6612238074168,207.10130530408293 456.70224167920486,207.10130530408293 456.70224167920486,197.06028743229484 456.70224167920486,188.27439679448028 460.46762338112535,183.25388785858624" fill="none" stroke="rgba(0,0,255,0.75)" stroke-width="2.510254467947017"/></g><g><polyline data-points="-0.46999999999999886,5.125000000000001 -0.36999999999999744,5.125000000000001 -0.2699999999999978,5.125000000000001 -0.16999999999999815,5.125000000000001 -0.06999999999999851,5.125000000000001 0.030000000000001137,5.125000000000001 0.13000000000000256,5.125000000000001 0.2300000000000022,5.125000000000001 0.2300000000000022,5.225000000000001 0.33000000000000185,5.225000000000001 0.33000000000000185,5.325000000000001 0.4300000000000015,5.325000000000001 0.4300000000000015,5.425000000000001 0.5300000000000011,5.425000000000001 0.5300000000000011,5.525 0.6300000000000026,5.525 0.6300000000000026,5.625000000000001 0.7300000000000022,5.625000000000001 0.7300000000000022,5.725000000000001 0.8300000000000018,5.725000000000001 0.784999999999993,5.779999999999999" data-type="line" data-label="" points="460.46762338112535,183.25388785858624 462.9778778490724,183.25388785858624 465.4881323170194,183.25388785858624 467.9983867849664,183.25388785858624 470.5086412529134,183.25388785858624 473.0188957208604,183.25388785858624 475.5291501888075,183.25388785858624 478.03940465675447,183.25388785858624 478.03940465675447,180.74363339063922 480.54965912470146,180.74363339063922 480.54965912470146,178.2333789226922 483.05991359264846,178.2333789226922 483.05991359264846,175.7231244547452 485.5701680605955,175.7231244547452 485.5701680605955,173.21286998679818 488.08042252854256,173.21286998679818 488.08042252854256,170.70261551885116 490.59067699648955,170.70261551885116 490.59067699648955,168.19236105090414 493.10093146443654,168.19236105090414 491.9713169538602,166.81172109353332" fill="none" stroke="rgba(255,0,0,0.75)" stroke-width="2.510254467947017"/></g><g><rect data-type="rect" data-label="" data-x="-6.065752350000004" data-y="-0.3225000000000007" x="40" y="166.81172109353335" width="560" height="306.37655781293336" fill="none" stroke="gray" stroke-width="0.03983659874999999"/></g><circle data-type="circle" data-label="" data-x="-6.869999999999998" data-y="5.625000000000001" cx="299.81133743251627" cy="170.70261551885116" r="3.765381701920525" fill="rgba(0,0,0,0.3)" stroke="black" stroke-width="0.03983659874999999"/><circle data-type="circle" data-label="" data-x="-0.21999999999999886" data-y="2.1750000000000007" cx="466.7432595509929" cy="257.30639466302324" r="3.765381701920525" fill="rgba(0,0,0,0.3)" stroke="black" stroke-width="0.03983659874999999"/><circle data-type="circle" data-label="" data-x="1.3800000000000026" data-y="4.175000000000001" cx="506.9073310381452" cy="207.10130530408293" r="3.765381701920525" fill="rgba(0,0,0,0.3)" stroke="black" stroke-width="0.03983659874999999"/><circle data-type="circle" data-label="" data-x="4.930000000000003" data-y="0.6250000000000004" cx="596.0213646502643" cy="296.21533891620203" r="3.765381701920525" fill="rgba(0,0,0,0.3)" stroke="black" stroke-width="0.03983659874999999"/><circle data-type="circle" data-label="" data-x="-3.0199999999999987" data-y="3.7750000000000004" cx="396.4561344484764" cy="217.14232317587098" r="3.765381701920525" fill="rgba(0,0,0,0.3)" stroke="black" stroke-width="0.03983659874999999"/><circle data-type="circle" data-label="" data-x="-1.4199999999999982" data-y="1.7750000000000004" cx="436.6202059356287" cy="267.3474125348113" r="3.765381701920525" fill="rgba(0,0,0,0.3)" stroke="black" stroke-width="0.03983659874999999"/><circle data-type="circle" data-label="" data-x="4.930000000000003" data-y="-0.17499999999999938" cx="596.0213646502643" cy="316.29737465977814" r="3.765381701920525" fill="rgba(0,0,0,0.3)" stroke="black" stroke-width="0.03983659874999999"/><circle data-type="circle" data-label="" data-x="4.530000000000003" data-y="-0.27499999999999947" cx="585.9803467784762" cy="318.80762912772514" r="3.765381701920525" fill="rgba(0,0,0,0.3)" stroke="black" stroke-width="0.03983659874999999"/><circle data-type="circle" data-label="" data-x="-1.4199999999999982" data-y="3.375000000000001" cx="436.6202059356287" cy="227.18334104765904" r="3.765381701920525" fill="rgba(0,0,0,0.3)" stroke="black" stroke-width="0.03983659874999999"/><circle data-type="circle" data-label="" data-x="-0.46999999999999886" data-y="5.125000000000001" cx="460.46762338112535" cy="183.25388785858624" r="3.765381701920525" fill="rgba(0,0,0,0.3)" stroke="black" stroke-width="0.03983659874999999"/><g id="crosshair" style="display: none"><line id="crosshair-h" y1="0" y2="640" stroke="#666" stroke-width="0.5"/><line id="crosshair-v" x1="0" x2="640" stroke="#666" stroke-width="0.5"/><text id="coordinates" font-family="monospace" font-size="12" fill="#666"></text></g><script><![CDATA[
              document.currentScript.parentElement.addEventListener('mousemove', (e) => {
                const svg = e.currentTarget;
                const rect = svg.getBoundingClientRect();
                const x = e.clientX - rect.left;
                const y = e.clientY - rect.top;
                const crosshair = svg.getElementById('crosshair');
                const h = svg.getElementById('crosshair-h');
                const v = svg.getElementById('crosshair-v');
                const coords = svg.getElementById('coordinates');
                
                crosshair.style.display = 'block';
                h.setAttribute('x1', '0');
                h.setAttribute('x2', '640');
                h.setAttribute('y1', y);
                h.setAttribute('y2', y);
                v.setAttribute('x1', x);
                v.setAttribute('x2', x);
                v.setAttribute('y1', '0');
                v.setAttribute('y2', '640');

                // Calculate real coordinates using inverse transformation
                const matrix = {"a":25.102544679470167,"c":0,"e":472.2658193804763,"b":0,"d":-25.102544679470167,"f":311.9044293408709};
                // Manually invert and apply the affine transform
                // Since we only use translate and scale, we can directly compute:
                // x' = (x - tx) / sx
                // y' = (y - ty) / sy
                const sx = matrix.a;
                const sy = matrix.d;
                const tx = matrix.e; 
                const ty = matrix.f;
                const realPoint = {
                  x: (x - tx) / sx,
                  y: (y - ty) / sy // Flip y back since we used negative scale
                }
                
                coords.textContent = `(${realPoint.x.toFixed(2)}, ${realPoint.y.toFixed(2)})`;
                coords.setAttribute('x', (x + 5).toString());
                coords.setAttribute('y', (y - 5).toString());
              });
              document.currentScript.parentElement.addEventListener('mouseleave', () => {
                document.currentScript.parentElement.getElementById('crosshair').style.display = 'none';
              });
            ]]></script></svg>