<svg width="640" height="640" viewBox="0 0 640 640" xmlns="http://www.w3.org/2000/svg"><rect width="100%" height="100%" fill="white"/><g><circle data-type="point" data-label="source_trace_0" data-x="-2.6499999999999995" data-y="6.985" cx="445.65" cy="222.20999999999998" r="3" fill="red"/></g><g><circle data-type="point" data-label="source_trace_13" data-x="-2.6499999999999986" data-y="-4.476206896551725" cx="445.65000000000003" cy="382.66689655172416" r="3" fill="green"/></g><g><circle data-type="point" data-label="source_trace_13" data-x="-20.75" data-y="13.97" cx="192.25" cy="124.41999999999999" r="3" fill="blue"/></g><g><circle data-type="point" data-label="source_trace_15" data-x="-20.75" data-y="11.429999999999998" cx="192.25" cy="159.98000000000002" r="3" fill="blue"/></g><g><circle data-type="point" data-label="source_trace_4" data-x="-2.6499999999999995" data-y="1.9050000000000002" cx="445.65" cy="293.33" r="3" fill="red"/></g><g><circle data-type="point" data-label="source_trace_4" data-x="-2.6499999999999986" data-y="1.141379310344828" cx="445.65000000000003" cy="304.0206896551724" r="3" fill="green"/></g><g><circle data-type="point" data-label="source_trace_17" data-x="-20.75" data-y="8.889999999999999" cx="192.25" cy="195.54000000000002" r="3" fill="blue"/></g><g><circle data-type="point" data-label="source_trace_5" data-x="-2.6499999999999995" data-y="0.6350000000000007" cx="445.65" cy="311.11" r="3" fill="red"/></g><g><circle data-type="point" data-label="source_trace_7" data-x="-2.6499999999999995" data-y="-1.905" cx="445.65" cy="346.67" r="3" fill="red"/></g><g><circle data-type="point" data-label="source_trace_9" data-x="-2.6499999999999995" data-y="-4.444999999999999" cx="445.65" cy="382.23" r="3" fill="red"/></g><g><circle data-type="point" data-label="source_trace_12" data-x="-20.75" data-y="-13.97" cx="192.25" cy="515.58" r="3" fill="blue"/></g><g><circle data-type="point" data-label="source_trace_14" data-x="-20.75" data-y="-11.43" cx="192.25" cy="480.02" r="3" fill="red"/></g><g><circle data-type="point" data-label="source_trace_16" data-x="-20.75" data-y="-8.89" cx="192.25" cy="444.46000000000004" r="3" fill="red"/></g><g><circle data-type="point" data-label="source_trace_18" data-x="-2.6499999999999986" data-y="0.6306896551724146" cx="445.65000000000003" cy="311.1703448275862" r="3" fill="green"/></g><g><circle data-type="point" data-label="source_trace_18" data-x="-20.75" data-y="-6.3500000000000005" cx="192.25" cy="408.9" r="3" fill="green"/></g><g><circle data-type="point" data-label="source_trace_20" data-x="-2.6499999999999986" data-y="2.54" cx="445.65000000000003" cy="284.44" r="3" fill="red"/></g><g><circle data-type="point" data-label="source_trace_20" data-x="-20.75" data-y="-3.8100000000000005" cx="192.25" cy="373.34000000000003" r="3" fill="red"/></g><g><circle data-type="point" data-label="source_trace_22" data-x="-2.6499999999999986" data-y="4.205517241379312" cx="445.65000000000003" cy="261.12275862068964" r="3" fill="green"/></g><g><circle data-type="point" data-label="source_trace_22" data-x="-20.75" data-y="-1.2700000000000014" cx="192.25" cy="337.78000000000003" r="3" fill="green"/></g><g><circle data-type="point" data-label="source_trace_23" data-x="-2.6499999999999986" data-y="5.226896551724138" cx="445.65000000000003" cy="246.82344827586206" r="3" fill="green"/></g><g><circle data-type="point" data-label="source_trace_23" data-x="-20.75" data-y="1.2699999999999996" cx="192.25" cy="302.22" r="3" fill="green"/></g><g><circle data-type="point" data-label="source_trace_19" data-x="-2.6499999999999986" data-y="1.2700000000000005" cx="445.65000000000003" cy="302.21999999999997" r="3" fill="red"/></g><g><circle data-type="point" data-label="source_trace_19" data-x="-20.75" data-y="6.35" cx="192.25" cy="231.10000000000002" r="3" fill="red"/></g><g><circle data-type="point" data-label="source_trace_21" data-x="-2.6499999999999986" data-y="3.6948275862068964" cx="445.65000000000003" cy="268.27241379310345" r="3" fill="green"/></g><g><circle data-type="point" data-label="source_trace_21" data-x="-20.75" data-y="3.8100000000000005" cx="192.25" cy="266.65999999999997" r="3" fill="green"/></g><g><circle data-type="point" data-label="source_trace_0" data-x="-2.6499999999999986" data-y="-18.89" cx="445.65000000000003" cy="584.46" r="3" fill="blue"/></g><g><circle data-type="point" data-label="source_trace_12" data-x="-2.6499999999999986" data-y="-17.78" cx="445.65000000000003" cy="568.9200000000001" r="3" fill="blue"/></g><g><circle data-type="point" data-label="source_trace_14" data-x="-2.6499999999999986" data-y="-16.669999999999998" cx="445.65000000000003" cy="553.38" r="3" fill="red"/></g><g><circle data-type="point" data-label="source_trace_15" data-x="-2.6499999999999986" data-y="-13.34" cx="445.65000000000003" cy="506.76" r="3" fill="red"/></g><g><circle data-type="point" data-label="source_trace_16" data-x="-2.6499999999999986" data-y="-14.45" cx="445.65000000000003" cy="522.3" r="3" fill="red"/></g><g><circle data-type="point" data-label="source_trace_17" data-x="-2.6499999999999986" data-y="-15.559999999999999" cx="445.65000000000003" cy="537.8399999999999" r="3" fill="red"/></g><g><circle data-type="point" data-label="source_trace_5" data-x="-2.6499999999999986" data-y="-10.009999999999998" cx="445.65000000000003" cy="460.14" r="3" fill="red"/></g><g><circle data-type="point" data-label="source_trace_7" data-x="-2.6499999999999986" data-y="-11.12" cx="445.65000000000003" cy="475.67999999999995" r="3" fill="red"/></g><g><circle data-type="point" data-label="source_trace_9" data-x="-2.6499999999999986" data-y="-12.23" cx="445.65000000000003" cy="491.22" r="3" fill="red"/></g><g><polyline data-points="-20.5,-13.75 -20,-14.25 -19.5,-14.75 -19,-15.25 -18.5,-15.75 -18,-16.25 -17.5,-16.75 -17,-17.25 -16.5,-17.25 -16,-17.25 -15.5,-17.25 -15,-17.25 -14.5,-17.25 -14,-17.25 -13.5,-17.25 -13,-17.25 -12.5,-17.25 -12,-17.25 -11.5,-17.25 -11,-17.25 -10.5,-17.25 -10,-17.25 -9.5,-17.25 -9,-17.25 -8.5,-17.25 -8,-17.25 -7.5,-17.25 -7,-17.25 -6.5,-17.25 -6,-17.25 -5.5,-17.25 -5,-17.25 -4.5,-17.25 -4,-17.25 -3.5,-17.25 -3,-17.75" data-type="line" data-label="" points="195.75,512.5 202.75,519.5 209.75,526.5 216.75,533.5 223.75,540.5 230.75,547.5 237.75,554.5 244.75,561.5 251.75,561.5 258.75,561.5 265.75,561.5 272.75,561.5 279.75,561.5 286.75,561.5 293.75,561.5 300.75,561.5 307.75,561.5 314.75,561.5 321.75,561.5 328.75,561.5 335.75,561.5 342.75,561.5 349.75,561.5 356.75,561.5 363.75,561.5 370.75,561.5 377.75,561.5 384.75,561.5 391.75,561.5 398.75,561.5 405.75,561.5 412.75,561.5 419.75,561.5 426.75,561.5 433.75,561.5 440.75,568.5" fill="none" stroke="blue" stroke-width="1.4000000000000001"/></g><g><polyline data-points="-2.5,2.75 -3.5,3.25 -4,3.75 -4.5,4.25 -5,4.75 -5.5,5.25 -5.5,5.75" data-type="line" data-label="" points="447.75,281.5 433.75,274.5 426.75,267.5 419.75,260.5 412.75,253.5 405.75,246.5 405.75,239.5" fill="none" stroke="red" stroke-width="1.4000000000000001"/></g><g><polyline data-points="-5.5,5.75 -6,5.25 -6.5,4.75 -7,4.25 -7.5,3.75 -8,3.25" data-type="line" data-label="" points="405.75,239.5 398.75,246.5 391.75,253.5 384.75,260.5 377.75,267.5 370.75,274.5" fill="none" stroke="green" stroke-width="1.4000000000000001"/></g><g><polyline data-points="-8,3.25 -8.5,2.75 -9,2.75 -9.5,2.75 -10,2.75 -10.5,2.75 -11,2.75 -11.5,2.75 -12,2.25 -12.5,2.25 -13,2.25 -13.5,2.25 -14,2.25 -14.5,2.25 -15,2.25 -15.5,2.25 -16,2.25 -16.5,2.25 -17,2.25 -17.5,2.25 -18,1.75 -18.5,1.25 -18.5,0.75 -18.5,0.25 -18.5,-0.25 -18.5,-0.75 -18.5,-1.25 -19,-1.75 -19.5,-2.25 -19.5,-2.75" data-type="line" data-label="" points="370.75,274.5 363.75,281.5 356.75,281.5 349.75,281.5 342.75,281.5 335.75,281.5 328.75,281.5 321.75,281.5 314.75,288.5 307.75,288.5 300.75,288.5 293.75,288.5 286.75,288.5 279.75,288.5 272.75,288.5 265.75,288.5 258.75,288.5 251.75,288.5 244.75,288.5 237.75,288.5 230.75,295.5 223.75,302.5 223.75,309.5 223.75,316.5 223.75,323.5 223.75,330.5 223.75,337.5 216.75,344.5 209.75,351.5 209.75,358.5" fill="none" stroke="blue" stroke-width="1.4000000000000001"/></g><g><polyline data-points="-19.5,-2.75 -20,-3.25 -20.5,-3.75" data-type="line" data-label="" points="209.75,358.5 202.75,365.5 195.75,372.5" fill="none" stroke="red" stroke-width="1.4000000000000001"/></g><g><polyline data-points="-20.5,-11.25 -20.5,-11.75 -20,-12.25 -19.5,-12.75 -19,-13.25 -18.5,-13.75 -18,-14.25 -17.5,-14.75 -17,-15.25 -16.5,-15.75 -16,-16.25 -15.5,-16.75 -15,-16.75 -14.5,-16.75 -14,-16.75 -13.5,-16.75 -13,-16.75 -12.5,-16.75 -12,-16.75 -11.5,-16.75 -11,-16.75 -10.5,-16.75 -10,-16.75 -9.5,-16.75 -9,-16.75 -8.5,-16.75 -8,-16.75 -7.5,-16.75 -7,-16.75 -6.5,-16.75 -6,-16.75 -5.5,-16.75 -5,-16.75 -4.5,-16.75 -4,-16.75 -3.5,-16.75 -3,-16.75" data-type="line" data-label="" points="195.75,477.5 195.75,484.5 202.75,491.5 209.75,498.5 216.75,505.5 223.75,512.5 230.75,519.5 237.75,526.5 244.75,533.5 251.75,540.5 258.75,547.5 265.75,554.5 272.75,554.5 279.75,554.5 286.75,554.5 293.75,554.5 300.75,554.5 307.75,554.5 314.75,554.5 321.75,554.5 328.75,554.5 335.75,554.5 342.75,554.5 349.75,554.5 356.75,554.5 363.75,554.5 370.75,554.5 377.75,554.5 384.75,554.5 391.75,554.5 398.75,554.5 405.75,554.5 412.75,554.5 419.75,554.5 426.75,554.5 433.75,554.5 440.75,554.5" fill="none" stroke="red" stroke-width="1.4000000000000001"/></g><g><polyline data-points="-2.5,3.75 -3.5,3.25 -4,3.75 -4.5,3.25 -5,2.75" data-type="line" data-label="" points="447.75,267.5 433.75,274.5 426.75,267.5 419.75,274.5 412.75,281.5" fill="none" stroke="green" stroke-width="1.4000000000000001"/></g><g><polyline data-points="-5,2.75 -5.5,3.25 -6,3.75 -6.5,3.75 -7,4.25 -7.5,4.75 -8,4.75 -8.5,4.75 -9,4.75 -9.5,4.75 -10,4.75 -10.5,4.75 -11,4.75 -11.5,4.75 -12,4.75 -12.5,4.75 -13,4.75 -13.5,4.75 -14,4.25 -14.5,4.25 -15,4.25 -15.5,4.25 -16,4.25 -16.5,4.25 -17,4.25 -17.5,4.25 -18,4.25 -18.5,4.25 -19,4.25" data-type="line" data-label="" points="412.75,281.5 405.75,274.5 398.75,267.5 391.75,267.5 384.75,260.5 377.75,253.5 370.75,253.5 363.75,253.5 356.75,253.5 349.75,253.5 342.75,253.5 335.75,253.5 328.75,253.5 321.75,253.5 314.75,253.5 307.75,253.5 300.75,253.5 293.75,253.5 286.75,260.5 279.75,260.5 272.75,260.5 265.75,260.5 258.75,260.5 251.75,260.5 244.75,260.5 237.75,260.5 230.75,260.5 223.75,260.5 216.75,260.5" fill="none" stroke="blue" stroke-width="1.4000000000000001"/></g><g><polyline data-points="-19,4.25 -19.5,4.25 -20,4.25 -20.5,3.75" data-type="line" data-label="" points="216.75,260.5 209.75,260.5 202.75,260.5 195.75,267.5" fill="none" stroke="green" stroke-width="1.4000000000000001"/></g><g><polyline data-points="-2.5,1.75 -3.5,2.25 -4,2.75 -4.5,2.25 -5,1.75 -5.5,1.25" data-type="line" data-label="" points="447.75,295.5 433.75,288.5 426.75,281.5 419.75,288.5 412.75,295.5 405.75,302.5" fill="none" stroke="red" stroke-width="1.4000000000000001"/></g><g><polyline data-points="-5.5,1.25 -5,1.75 -4.5,1.75 -4,2.25 -3.5,2.25 -3,1.75 -3,1.25" data-type="line" data-label="" points="405.75,302.5 412.75,295.5 419.75,295.5 426.75,288.5 433.75,288.5 440.75,295.5 440.75,302.5" fill="none" stroke="green" stroke-width="1.4000000000000001"/></g><g><polyline data-points="-2.5,4.25 -3.5,4.75 -4,4.75 -4.5,4.25 -5,3.75 -5.5,3.25 -6,3.25 -6.5,2.75 -7,2.25" data-type="line" data-label="" points="447.75,260.5 433.75,253.5 426.75,253.5 419.75,260.5 412.75,267.5 405.75,274.5 398.75,274.5 391.75,281.5 384.75,288.5" fill="none" stroke="green" stroke-width="1.4000000000000001"/></g><g><polyline data-points="-7,2.25 -7.5,1.75 -8,1.25" data-type="line" data-label="" points="384.75,288.5 377.75,295.5 370.75,302.5" fill="none" stroke="red" stroke-width="1.4000000000000001"/></g><g><polyline data-points="-8,1.25 -8.5,0.75 -9,0.25 -9.5,-0.25 -10,-0.25 -10.5,-0.25 -11,-0.25 -11.5,-0.25 -12,-0.25 -12.5,-0.25 -13,-0.25 -13.5,-0.25 -14,-0.25 -14.5,-0.25 -15,-0.25 -15.5,-0.25 -16,-0.25 -16.5,-0.25 -17,-0.25" data-type="line" data-label="" points="370.75,302.5 363.75,309.5 356.75,316.5 349.75,323.5 342.75,323.5 335.75,323.5 328.75,323.5 321.75,323.5 314.75,323.5 307.75,323.5 300.75,323.5 293.75,323.5 286.75,323.5 279.75,323.5 272.75,323.5 265.75,323.5 258.75,323.5 251.75,323.5 244.75,323.5" fill="none" stroke="blue" stroke-width="1.4000000000000001"/></g><g><polyline data-points="-17,-0.25 -17.5,-0.25 -18,-0.25 -18.5,-0.25 -19,-0.25 -19.5,-0.25 -20,-0.25 -20.5,-0.75 -20.5,-1.25" data-type="line" data-label="" points="244.75,323.5 237.75,323.5 230.75,323.5 223.75,323.5 216.75,323.5 209.75,323.5 202.75,323.5 195.75,330.5 195.75,337.5" fill="none" stroke="green" stroke-width="1.4000000000000001"/></g><g><polyline data-points="-2.5,1.25 -3.5,1.25 -4,1.25 -4.5,0.75 -5,0.25 -5.5,0.25 -6,-0.25 -6.5,0.25" data-type="line" data-label="" points="447.75,302.5 433.75,302.5 426.75,302.5 419.75,309.5 412.75,316.5 405.75,316.5 398.75,323.5 391.75,316.5" fill="none" stroke="red" stroke-width="1.4000000000000001"/></g><g><polyline data-points="-6.5,0.25 -7,0.25 -7.5,0.25 -8,-0.25 -8.5,0.25 -9,0.75 -9.5,1.25 -10,1.75 -10.5,2.25 -11,2.75 -11.5,3.25 -12,3.75 -12.5,4.25 -13,4.75 -13.5,5.25 -13.5,5.75 -13,6.25" data-type="line" data-label="" points="391.75,316.5 384.75,316.5 377.75,316.5 370.75,323.5 363.75,316.5 356.75,309.5 349.75,302.5 342.75,295.5 335.75,288.5 328.75,281.5 321.75,274.5 314.75,267.5 307.75,260.5 300.75,253.5 293.75,246.5 293.75,239.5 300.75,232.5" fill="none" stroke="green" stroke-width="1.4000000000000001"/></g><g><polyline data-points="-13,6.25 -13.5,5.75 -14,5.75 -14.5,5.75 -15,5.75 -15.5,5.75 -16,5.75 -16.5,5.75 -17,5.75 -17.5,5.75 -18,5.75 -18.5,5.75 -19,5.75 -19.5,5.75" data-type="line" data-label="" points="300.75,232.5 293.75,239.5 286.75,239.5 279.75,239.5 272.75,239.5 265.75,239.5 258.75,239.5 251.75,239.5 244.75,239.5 237.75,239.5 230.75,239.5 223.75,239.5 216.75,239.5 209.75,239.5" fill="none" stroke="blue" stroke-width="1.4000000000000001"/></g><g><polyline data-points="-19.5,5.75 -20,5.75 -20.5,6.25" data-type="line" data-label="" points="209.75,239.5 202.75,239.5 195.75,232.5" fill="none" stroke="red" stroke-width="1.4000000000000001"/></g><g><polyline data-points="-2.5,0.75 -3,0.25 -3.5,-0.25 -4,-0.75 -4.5,-1.25" data-type="line" data-label="" points="447.75,309.5 440.75,316.5 433.75,323.5 426.75,330.5 419.75,337.5" fill="none" stroke="green" stroke-width="1.4000000000000001"/></g><g><polyline data-points="-4.5,-1.25 -4.5,-1.75 -5,-2.25 -5.5,-2.75 -6,-3.25 -6.5,-3.75 -7,-4.25 -7.5,-4.75 -8,-5.25 -8.5,-5.75 -9,-6.25 -9.5,-6.75 -10,-6.75 -10.5,-6.75 -11,-7.25 -11.5,-7.25 -12,-7.25 -12.5,-7.25 -13,-7.25 -13.5,-7.25 -14,-7.25 -14.5,-7.25 -15,-7.25 -15.5,-7.25 -16,-7.25 -16.5,-7.25 -17,-7.25 -17.5,-7.25 -18,-7.25 -18.5,-7.25 -19,-7.25 -19.5,-7.25" data-type="line" data-label="" points="419.75,337.5 419.75,344.5 412.75,351.5 405.75,358.5 398.75,365.5 391.75,372.5 384.75,379.5 377.75,386.5 370.75,393.5 363.75,400.5 356.75,407.5 349.75,414.5 342.75,414.5 335.75,414.5 328.75,421.5 321.75,421.5 314.75,421.5 307.75,421.5 300.75,421.5 293.75,421.5 286.75,421.5 279.75,421.5 272.75,421.5 265.75,421.5 258.75,421.5 251.75,421.5 244.75,421.5 237.75,421.5 230.75,421.5 223.75,421.5 216.75,421.5 209.75,421.5" fill="none" stroke="blue" stroke-width="1.4000000000000001"/></g><g><polyline data-points="-19.5,-7.25 -20,-7.25 -20.5,-6.75 -20.5,-6.25" data-type="line" data-label="" points="209.75,421.5 202.75,421.5 195.75,414.5 195.75,407.5" fill="none" stroke="green" stroke-width="1.4000000000000001"/></g><g><polyline data-points="-2.5,5.25 -3.5,5.75 -4,5.75 -4.5,6.25 -5,6.75 -5.5,6.75 -6,6.75 -6.5,6.75 -7,6.75 -7.5,6.75 -8,6.75 -8.5,6.75 -9,6.75 -9.5,6.75 -10,6.75 -10.5,6.75 -11,6.75 -11.5,6.75 -12,7.25" data-type="line" data-label="" points="447.75,246.5 433.75,239.5 426.75,239.5 419.75,232.5 412.75,225.5 405.75,225.5 398.75,225.5 391.75,225.5 384.75,225.5 377.75,225.5 370.75,225.5 363.75,225.5 356.75,225.5 349.75,225.5 342.75,225.5 335.75,225.5 328.75,225.5 321.75,225.5 314.75,218.5" fill="none" stroke="green" stroke-width="1.4000000000000001"/></g><g><polyline data-points="-12,7.25 -12.5,7.25 -13,7.25 -13.5,7.25 -14,7.25 -14.5,6.75 -15,6.75 -15.5,6.75 -16,6.75 -16.5,6.75 -17,6.75 -17.5,6.75 -18,6.75 -18.5,6.75 -19,6.75 -19.5,6.75 -20,6.75 -20.5,6.25 -20.5,5.75 -20.5,5.25 -20,4.75 -20,4.25 -20,3.75 -20.5,3.25 -20,2.75 -19.5,2.25" data-type="line" data-label="" points="314.75,218.5 307.75,218.5 300.75,218.5 293.75,218.5 286.75,218.5 279.75,225.5 272.75,225.5 265.75,225.5 258.75,225.5 251.75,225.5 244.75,225.5 237.75,225.5 230.75,225.5 223.75,225.5 216.75,225.5 209.75,225.5 202.75,225.5 195.75,232.5 195.75,239.5 195.75,246.5 202.75,253.5 202.75,260.5 202.75,267.5 195.75,274.5 202.75,281.5 209.75,288.5" fill="none" stroke="blue" stroke-width="1.4000000000000001"/></g><g><polyline data-points="-19.5,2.25 -20,1.75 -20.5,1.25" data-type="line" data-label="" points="209.75,288.5 202.75,295.5 195.75,302.5" fill="none" stroke="green" stroke-width="1.4000000000000001"/></g><g><polyline data-points="-20.5,8.75 -20,8.75 -19.5,8.25" data-type="line" data-label="" points="195.75,197.5 202.75,197.5 209.75,204.5" fill="none" stroke="blue" stroke-width="1.4000000000000001"/></g><g><polyline data-points="-19.5,8.25 -19,7.75 -18.5,7.25 -18,6.75 -17.5,6.25 -17,5.75 -16.5,5.25 -16,4.75 -15.5,4.25 -15,3.75 -14.5,3.25 -14,2.75 -13.5,2.25 -13,1.75 -12.5,1.25 -12,0.75 -11.5,0.25 -11,-0.25 -10.5,-0.75 -10,-1.25 -9.5,-1.75 -9,-2.25 -8.5,-2.75 -9,-3.25 -8.5,-3.75 -8.5,-4.25 -8.5,-4.75 -8,-5.25 -8,-5.75 -8,-6.25 -8,-6.75 -8,-7.25 -8,-7.75 -8,-8.25 -8,-8.75 -8,-9.25 -8,-9.75 -8,-10.25 -8,-10.75 -8,-11.25 -8,-11.75 -7.5,-12.25 -7.5,-12.75" data-type="line" data-label="" points="209.75,204.5 216.75,211.5 223.75,218.5 230.75,225.5 237.75,232.5 244.75,239.5 251.75,246.5 258.75,253.5 265.75,260.5 272.75,267.5 279.75,274.5 286.75,281.5 293.75,288.5 300.75,295.5 307.75,302.5 314.75,309.5 321.75,316.5 328.75,323.5 335.75,330.5 342.75,337.5 349.75,344.5 356.75,351.5 363.75,358.5 356.75,365.5 363.75,372.5 363.75,379.5 363.75,386.5 370.75,393.5 370.75,400.5 370.75,407.5 370.75,414.5 370.75,421.5 370.75,428.5 370.75,435.5 370.75,442.5 370.75,449.5 370.75,456.5 370.75,463.5 370.75,470.5 370.75,477.5 370.75,484.5 377.75,491.5 377.75,498.5" fill="none" stroke="green" stroke-width="1.4000000000000001"/></g><g><polyline data-points="-7.5,-12.75 -7,-13.25 -6.5,-13.75 -6,-14.25 -5.5,-14.75 -5,-15.25 -4.5,-15.75 -4,-15.75" data-type="line" data-label="" points="377.75,498.5 384.75,505.5 391.75,512.5 398.75,519.5 405.75,526.5 412.75,533.5 419.75,540.5 426.75,540.5" fill="none" stroke="blue" stroke-width="1.4000000000000001"/></g><g><polyline data-points="-4,-15.75 -3.5,-15.75 -3,-15.75" data-type="line" data-label="" points="426.75,540.5 433.75,540.5 440.75,540.5" fill="none" stroke="red" stroke-width="1.4000000000000001"/></g><g><polyline data-points="-2.5,0.75 -3.5,0.75 -4,0.75 -4.5,0.25 -5,-0.25 -5.5,-0.75 -6,-1.25 -6.5,-1.75 -7,-2.25" data-type="line" data-label="" points="447.75,309.5 433.75,309.5 426.75,309.5 419.75,316.5 412.75,323.5 405.75,330.5 398.75,337.5 391.75,344.5 384.75,351.5" fill="none" stroke="red" stroke-width="1.4000000000000001"/></g><g><polyline data-points="-7,-2.25 -6.5,-2.75 -6.5,-3.25 -6,-3.75 -5.5,-4.25 -5,-4.75 -4.5,-5.25 -4,-5.25 -3.5,-5.75 -3,-6.25 -3,-6.75 -3,-7.25 -3.5,-7.75 -4,-8.25" data-type="line" data-label="" points="384.75,351.5 391.75,358.5 391.75,365.5 398.75,372.5 405.75,379.5 412.75,386.5 419.75,393.5 426.75,393.5 433.75,400.5 440.75,407.5 440.75,414.5 440.75,421.5 433.75,428.5 426.75,435.5" fill="none" stroke="green" stroke-width="1.4000000000000001"/></g><g><polyline data-points="-4,-8.25 -3.5,-8.75 -3.5,-9.25 -3,-9.75 -3,-10.25" data-type="line" data-label="" points="426.75,435.5 433.75,442.5 433.75,449.5 440.75,456.5 440.75,463.5" fill="none" stroke="red" stroke-width="1.4000000000000001"/></g><g><polyline data-points="-20.5,-8.75 -20.5,-9.25 -20,-9.75 -19.5,-10.25 -19,-10.75 -18.5,-11.25 -18,-11.75 -17.5,-12.25 -17,-12.75 -16.5,-13.25 -16,-13.75 -15.5,-14.25 -15,-14.75 -14.5,-14.75 -14,-14.75 -13.5,-14.75 -13,-14.75 -12.5,-14.75 -12,-14.75 -11.5,-14.75 -11,-14.75 -10.5,-14.75 -10,-14.75 -9.5,-14.75 -9,-14.75 -8.5,-14.75 -8,-14.75 -7.5,-14.75 -7,-14.75 -6.5,-14.75 -6,-14.75 -5.5,-14.75 -5,-14.75 -4.5,-14.75 -4,-14.75 -3.5,-14.75 -3,-14.25" data-type="line" data-label="" points="195.75,442.5 195.75,449.5 202.75,456.5 209.75,463.5 216.75,470.5 223.75,477.5 230.75,484.5 237.75,491.5 244.75,498.5 251.75,505.5 258.75,512.5 265.75,519.5 272.75,526.5 279.75,526.5 286.75,526.5 293.75,526.5 300.75,526.5 307.75,526.5 314.75,526.5 321.75,526.5 328.75,526.5 335.75,526.5 342.75,526.5 349.75,526.5 356.75,526.5 363.75,526.5 370.75,526.5 377.75,526.5 384.75,526.5 391.75,526.5 398.75,526.5 405.75,526.5 412.75,526.5 419.75,526.5 426.75,526.5 433.75,526.5 440.75,519.5" fill="none" stroke="red" stroke-width="1.4000000000000001"/></g><g><polyline data-points="-20.5,11.25 -20,10.75 -19.5,10.25 -19,10.25 -18.5,10.25 -18,10.25 -17.5,10.75" data-type="line" data-label="" points="195.75,162.5 202.75,169.5 209.75,176.5 216.75,176.5 223.75,176.5 230.75,176.5 237.75,169.5" fill="none" stroke="blue" stroke-width="1.4000000000000001"/></g><g><polyline data-points="-17.5,10.75 -18,10.25 -18.5,10.25 -19,9.75 -19.5,9.25 -20,9.25 -20.5,8.75 -20.5,8.25 -20.5,7.75 -20,7.25 -19.5,6.75 -19,6.25 -18.5,5.75 -18,5.25 -17.5,4.75 -17,4.25 -16.5,3.75 -16,3.25 -15.5,2.75 -15,2.25 -14.5,1.75 -14,1.25 -13.5,0.75 -13,0.25 -12.5,-0.25 -12,-0.75 -11.5,-1.25 -11,-1.75 -11,-2.25 -11,-2.75 -11,-3.25 -11,-3.75 -11,-4.25 -11,-4.75 -11,-5.25 -10.5,-5.75 -10.5,-6.25 -10.5,-6.75 -10.5,-7.25 -10.5,-7.75 -10.5,-8.25 -11,-8.75 -10.5,-9.25 -10,-9.75 -10,-10.25 -9.5,-10.75 -9.5,-11.25 -9.5,-11.75 -9.5,-12.25 -9,-12.75 -9,-13.25 -8.5,-13.75 -8,-13.75 -7.5,-13.75 -7,-13.75 -6.5,-13.75 -6,-13.75 -5.5,-13.75 -5,-13.75 -4.5,-13.25" data-type="line" data-label="" points="237.75,169.5 230.75,176.5 223.75,176.5 216.75,183.5 209.75,190.5 202.75,190.5 195.75,197.5 195.75,204.5 195.75,211.5 202.75,218.5 209.75,225.5 216.75,232.5 223.75,239.5 230.75,246.5 237.75,253.5 244.75,260.5 251.75,267.5 258.75,274.5 265.75,281.5 272.75,288.5 279.75,295.5 286.75,302.5 293.75,309.5 300.75,316.5 307.75,323.5 314.75,330.5 321.75,337.5 328.75,344.5 328.75,351.5 328.75,358.5 328.75,365.5 328.75,372.5 328.75,379.5 328.75,386.5 328.75,393.5 335.75,400.5 335.75,407.5 335.75,414.5 335.75,421.5 335.75,428.5 335.75,435.5 328.75,442.5 335.75,449.5 342.75,456.5 342.75,463.5 349.75,470.5 349.75,477.5 349.75,484.5 349.75,491.5 356.75,498.5 356.75,505.5 363.75,512.5 370.75,512.5 377.75,512.5 384.75,512.5 391.75,512.5 398.75,512.5 405.75,512.5 412.75,512.5 419.75,505.5" fill="none" stroke="green" stroke-width="1.4000000000000001"/></g><g><polyline data-points="-4.5,-13.25 -4,-13.75 -3.5,-13.25 -3,-13.25" data-type="line" data-label="" points="419.75,505.5 426.75,512.5 433.75,505.5 440.75,505.5" fill="none" stroke="red" stroke-width="1.4000000000000001"/></g><g><polyline data-points="-2.5,6.75 -3.5,6.75 -4,6.75 -4.5,6.75 -5,6.75 -5.5,6.75 -6,6.75 -6.5,6.25 -7,5.75 -7.5,5.25 -7.5,4.75 -8,4.25 -8.5,3.75 -9,3.25 -9,2.75 -9,2.25 -9.5,1.75 -10,1.25 -10.5,0.75 -10.5,0.25 -11,-0.25 -11.5,-0.75 -11.5,-1.25 -11.5,-1.75 -11.5,-2.25 -11.5,-2.75 -11.5,-3.25 -11.5,-3.75 -11.5,-4.25 -11.5,-4.75 -11.5,-5.25 -11.5,-5.75 -11.5,-6.25 -11.5,-6.75 -11.5,-7.25 -11.5,-7.75 -11.5,-8.25 -11.5,-8.75 -11,-9.25 -10.5,-9.75 -10.5,-10.25 -10.5,-10.75 -10.5,-11.25 -10.5,-11.75 -10.5,-12.25 -10.5,-12.75 -10.5,-13.25" data-type="line" data-label="" points="447.75,225.5 433.75,225.5 426.75,225.5 419.75,225.5 412.75,225.5 405.75,225.5 398.75,225.5 391.75,232.5 384.75,239.5 377.75,246.5 377.75,253.5 370.75,260.5 363.75,267.5 356.75,274.5 356.75,281.5 356.75,288.5 349.75,295.5 342.75,302.5 335.75,309.5 335.75,316.5 328.75,323.5 321.75,330.5 321.75,337.5 321.75,344.5 321.75,351.5 321.75,358.5 321.75,365.5 321.75,372.5 321.75,379.5 321.75,386.5 321.75,393.5 321.75,400.5 321.75,407.5 321.75,414.5 321.75,421.5 321.75,428.5 321.75,435.5 321.75,442.5 328.75,449.5 335.75,456.5 335.75,463.5 335.75,470.5 335.75,477.5 335.75,484.5 335.75,491.5 335.75,498.5 335.75,505.5" fill="none" stroke="red" stroke-width="1.4000000000000001"/></g><g><polyline data-points="-10.5,-13.25 -10,-13.75 -9.5,-14.25 -9,-14.75 -8.5,-15.25 -8,-15.75 -7.5,-16.25 -7,-16.75 -6.5,-17.25 -6,-17.75 -5.5,-18.25 -5,-18.75" data-type="line" data-label="" points="335.75,505.5 342.75,512.5 349.75,519.5 356.75,526.5 363.75,533.5 370.75,540.5 377.75,547.5 384.75,554.5 391.75,561.5 398.75,568.5 405.75,575.5 412.75,582.5" fill="none" stroke="green" stroke-width="1.4000000000000001"/></g><g><polyline data-points="-5,-18.75 -4.5,-19.25 -4,-19.75 -3.5,-19.75 -3,-19.25 -3,-18.75" data-type="line" data-label="" points="412.75,582.5 419.75,589.5 426.75,596.5 433.75,596.5 440.75,589.5 440.75,582.5" fill="none" stroke="blue" stroke-width="1.4000000000000001"/></g><g><polyline data-points="-2.5,-4.25 -3.5,-4.75 -4,-5.25 -4.5,-5.75 -5,-6.25 -5,-6.75 -5.5,-7.25 -6,-7.75 -6.5,-8.25 -7,-8.75 -7.5,-9.25 -7.5,-9.75 -7.5,-10.25 -7,-10.75 -6.5,-11.25 -6,-11.75 -5.5,-12.25 -5,-12.25 -4.5,-11.75 -4,-12.25 -3.5,-12.25 -3,-12.25" data-type="line" data-label="" points="447.75,379.5 433.75,386.5 426.75,393.5 419.75,400.5 412.75,407.5 412.75,414.5 405.75,421.5 398.75,428.5 391.75,435.5 384.75,442.5 377.75,449.5 377.75,456.5 377.75,463.5 384.75,470.5 391.75,477.5 398.75,484.5 405.75,491.5 412.75,491.5 419.75,484.5 426.75,491.5 433.75,491.5 440.75,491.5" fill="none" stroke="red" stroke-width="1.4000000000000001"/></g><g><polyline data-points="-2.5,-4.25 -3.5,-3.75 -4,-3.25 -4.5,-2.75 -5,-2.25 -5.5,-1.75 -6,-1.25 -6.5,-0.75 -7,-1.25 -7.5,-1.25 -8,-1.25 -8.5,-0.75 -9,-0.25 -9.5,0.25 -10,0.75 -10.5,1.25 -11,1.75 -11.5,2.25 -12,2.75 -12.5,3.25 -13,3.75 -13.5,4.25 -14,4.75 -14.5,5.25 -14.5,5.75 -14.5,6.25 -15,6.75 -15.5,7.25 -16,7.75 -16.5,8.25 -17,8.75" data-type="line" data-label="" points="447.75,379.5 433.75,372.5 426.75,365.5 419.75,358.5 412.75,351.5 405.75,344.5 398.75,337.5 391.75,330.5 384.75,337.5 377.75,337.5 370.75,337.5 363.75,330.5 356.75,323.5 349.75,316.5 342.75,309.5 335.75,302.5 328.75,295.5 321.75,288.5 314.75,281.5 307.75,274.5 300.75,267.5 293.75,260.5 286.75,253.5 279.75,246.5 279.75,239.5 279.75,232.5 272.75,225.5 265.75,218.5 258.75,211.5 251.75,204.5 244.75,197.5" fill="none" stroke="green" stroke-width="1.4000000000000001"/></g><g><polyline data-points="-17,8.75 -17.5,9.25 -18,9.75 -18.5,10.25 -18.5,10.75 -18.5,11.25 -18.5,11.75 -19,12.25 -19.5,12.75 -19.5,13.25" data-type="line" data-label="" points="244.75,197.5 237.75,190.5 230.75,183.5 223.75,176.5 223.75,169.5 223.75,162.5 223.75,155.5 216.75,148.5 209.75,141.5 209.75,134.5" fill="none" stroke="red" stroke-width="1.4000000000000001"/></g><g><polyline data-points="-19.5,13.25 -20,13.75 -20.5,13.75" data-type="line" data-label="" points="209.75,134.5 202.75,127.5 195.75,127.5" fill="none" stroke="blue" stroke-width="1.4000000000000001"/></g><g><polyline data-points="-2.5,-1.75 -3.5,-1.75 -4,-2.25 -4.5,-2.75 -5,-3.25 -5.5,-3.75 -6,-4.25 -6.5,-4.75 -7,-5.25 -7.5,-5.75 -8,-6.25 -8.5,-6.75 -9,-7.25 -9,-7.75 -9.5,-8.25" data-type="line" data-label="" points="447.75,344.5 433.75,344.5 426.75,351.5 419.75,358.5 412.75,365.5 405.75,372.5 398.75,379.5 391.75,386.5 384.75,393.5 377.75,400.5 370.75,407.5 363.75,414.5 356.75,421.5 356.75,428.5 349.75,435.5" fill="none" stroke="red" stroke-width="1.4000000000000001"/></g><g><polyline data-points="-9.5,-8.25 -9,-8.75 -8.5,-9.25 -8,-9.75 -7.5,-10.25 -7,-10.75 -6.5,-11.25 -6,-10.75 -5.5,-10.25" data-type="line" data-label="" points="349.75,435.5 356.75,442.5 363.75,449.5 370.75,456.5 377.75,463.5 384.75,470.5 391.75,477.5 398.75,470.5 405.75,463.5" fill="none" stroke="blue" stroke-width="1.4000000000000001"/></g><g><polyline data-points="-5.5,-10.25 -5,-10.25 -4.5,-10.75 -4,-10.75 -3.5,-11.25 -3,-11.25" data-type="line" data-label="" points="405.75,463.5 412.75,463.5 419.75,470.5 426.75,470.5 433.75,477.5 440.75,477.5" fill="none" stroke="red" stroke-width="1.4000000000000001"/></g><g><rect data-type="rect" data-label="" data-x="-11.7" data-y="0" x="192.25" y="40" width="253.40000000000003" height="560" fill="none" stroke="gray" stroke-width="0.07142857142857142"/></g><circle data-type="circle" data-label="" data-x="-5.5" data-y="5.75" cx="405.75" cy="239.5" r="2.1" fill="rgba(0,0,0,0.3)" stroke="black" stroke-width="0.07142857142857142"/><circle data-type="circle" data-label="" data-x="-8" data-y="3.25" cx="370.75" cy="274.5" r="2.1" fill="rgba(0,0,0,0.3)" stroke="black" stroke-width="0.07142857142857142"/><circle data-type="circle" data-label="" data-x="-19.5" data-y="-2.75" cx="209.75" cy="358.5" r="2.1" fill="rgba(0,0,0,0.3)" stroke="black" stroke-width="0.07142857142857142"/><circle data-type="circle" data-label="" data-x="-5" data-y="2.75" cx="412.75" cy="281.5" r="2.1" fill="rgba(0,0,0,0.3)" stroke="black" stroke-width="0.07142857142857142"/><circle data-type="circle" data-label="" data-x="-19" data-y="4.25" cx="216.75" cy="260.5" r="2.1" fill="rgba(0,0,0,0.3)" stroke="black" stroke-width="0.07142857142857142"/><circle data-type="circle" data-label="" data-x="-5.5" data-y="1.25" cx="405.75" cy="302.5" r="2.1" fill="rgba(0,0,0,0.3)" stroke="black" stroke-width="0.07142857142857142"/><circle data-type="circle" data-label="" data-x="-7" data-y="2.25" cx="384.75" cy="288.5" r="2.1" fill="rgba(0,0,0,0.3)" stroke="black" stroke-width="0.07142857142857142"/><circle data-type="circle" data-label="" data-x="-8" data-y="1.25" cx="370.75" cy="302.5" r="2.1" fill="rgba(0,0,0,0.3)" stroke="black" stroke-width="0.07142857142857142"/><circle data-type="circle" data-label="" data-x="-17" data-y="-0.25" cx="244.75" cy="323.5" r="2.1" fill="rgba(0,0,0,0.3)" stroke="black" stroke-width="0.07142857142857142"/><circle data-type="circle" data-label="" data-x="-6.5" data-y="0.25" cx="391.75" cy="316.5" r="2.1" fill="rgba(0,0,0,0.3)" stroke="black" stroke-width="0.07142857142857142"/><circle data-type="circle" data-label="" data-x="-13" data-y="6.25" cx="300.75" cy="232.5" r="2.1" fill="rgba(0,0,0,0.3)" stroke="black" stroke-width="0.07142857142857142"/><circle data-type="circle" data-label="" data-x="-19.5" data-y="5.75" cx="209.75" cy="239.5" r="2.1" fill="rgba(0,0,0,0.3)" stroke="black" stroke-width="0.07142857142857142"/><circle data-type="circle" data-label="" data-x="-4.5" data-y="-1.25" cx="419.75" cy="337.5" r="2.1" fill="rgba(0,0,0,0.3)" stroke="black" stroke-width="0.07142857142857142"/><circle data-type="circle" data-label="" data-x="-19.5" data-y="-7.25" cx="209.75" cy="421.5" r="2.1" fill="rgba(0,0,0,0.3)" stroke="black" stroke-width="0.07142857142857142"/><circle data-type="circle" data-label="" data-x="-12" data-y="7.25" cx="314.75" cy="218.5" r="2.1" fill="rgba(0,0,0,0.3)" stroke="black" stroke-width="0.07142857142857142"/><circle data-type="circle" data-label="" data-x="-19.5" data-y="2.25" cx="209.75" cy="288.5" r="2.1" fill="rgba(0,0,0,0.3)" stroke="black" stroke-width="0.07142857142857142"/><circle data-type="circle" data-label="" data-x="-19.5" data-y="8.25" cx="209.75" cy="204.5" r="2.1" fill="rgba(0,0,0,0.3)" stroke="black" stroke-width="0.07142857142857142"/><circle data-type="circle" data-label="" data-x="-7.5" data-y="-12.75" cx="377.75" cy="498.5" r="2.1" fill="rgba(0,0,0,0.3)" stroke="black" stroke-width="0.07142857142857142"/><circle data-type="circle" data-label="" data-x="-4" data-y="-15.75" cx="426.75" cy="540.5" r="2.1" fill="rgba(0,0,0,0.3)" stroke="black" stroke-width="0.07142857142857142"/><circle data-type="circle" data-label="" data-x="-7" data-y="-2.25" cx="384.75" cy="351.5" r="2.1" fill="rgba(0,0,0,0.3)" stroke="black" stroke-width="0.07142857142857142"/><circle data-type="circle" data-label="" data-x="-4" data-y="-8.25" cx="426.75" cy="435.5" r="2.1" fill="rgba(0,0,0,0.3)" stroke="black" stroke-width="0.07142857142857142"/><circle data-type="circle" data-label="" data-x="-17.5" data-y="10.75" cx="237.75" cy="169.5" r="2.1" fill="rgba(0,0,0,0.3)" stroke="black" stroke-width="0.07142857142857142"/><circle data-type="circle" data-label="" data-x="-4.5" data-y="-13.25" cx="419.75" cy="505.5" r="2.1" fill="rgba(0,0,0,0.3)" stroke="black" stroke-width="0.07142857142857142"/><circle data-type="circle" data-label="" data-x="-10.5" data-y="-13.25" cx="335.75" cy="505.5" r="2.1" fill="rgba(0,0,0,0.3)" stroke="black" stroke-width="0.07142857142857142"/><circle data-type="circle" data-label="" data-x="-5" data-y="-18.75" cx="412.75" cy="582.5" r="2.1" fill="rgba(0,0,0,0.3)" stroke="black" stroke-width="0.07142857142857142"/><circle data-type="circle" data-label="" data-x="-17" data-y="8.75" cx="244.75" cy="197.5" r="2.1" fill="rgba(0,0,0,0.3)" stroke="black" stroke-width="0.07142857142857142"/><circle data-type="circle" data-label="" data-x="-19.5" data-y="13.25" cx="209.75" cy="134.5" r="2.1" fill="rgba(0,0,0,0.3)" stroke="black" stroke-width="0.07142857142857142"/><circle data-type="circle" data-label="" data-x="-9.5" data-y="-8.25" cx="349.75" cy="435.5" r="2.1" fill="rgba(0,0,0,0.3)" stroke="black" stroke-width="0.07142857142857142"/><circle data-type="circle" data-label="" data-x="-5.5" data-y="-10.25" cx="405.75" cy="463.5" r="2.1" fill="rgba(0,0,0,0.3)" stroke="black" stroke-width="0.07142857142857142"/><g id="crosshair" style="display: none"><line id="crosshair-h" y1="0" y2="640" stroke="#666" stroke-width="0.5"/><line id="crosshair-v" x1="0" x2="640" stroke="#666" stroke-width="0.5"/><text id="coordinates" font-family="monospace" font-size="12" fill="#666"></text></g><script><![CDATA[
              document.currentScript.parentElement.addEventListener('mousemove', (e) => {
                const svg = e.currentTarget;
                const rect = svg.getBoundingClientRect();
                const x = e.clientX - rect.left;
                const y = e.clientY - rect.top;
                const crosshair = svg.getElementById('crosshair');
                const h = svg.getElementById('crosshair-h');
                const v = svg.getElementById('crosshair-v');
                const coords = svg.getElementById('coordinates');
                
                crosshair.style.display = 'block';
                h.setAttribute('x1', '0');
                h.setAttribute('x2', '640');
                h.setAttribute('y1', y);
                h.setAttribute('y2', y);
                v.setAttribute('x1', x);
                v.setAttribute('x2', x);
                v.setAttribute('y1', '0');
                v.setAttribute('y2', '640');

                // Calculate real coordinates using inverse transformation
                const matrix = {"a":14,"c":0,"e":482.75,"b":0,"d":-14,"f":320};
                // Manually invert and apply the affine transform
                // Since we only use translate and scale, we can directly compute:
                // x' = (x - tx) / sx
                // y' = (y - ty) / sy
                const sx = matrix.a;
                const sy = matrix.d;
                const tx = matrix.e; 
                const ty = matrix.f;
                const realPoint = {
                  x: (x - tx) / sx,
                  y: (y - ty) / sy // Flip y back since we used negative scale
                }
                
                coords.textContent = `(${realPoint.x.toFixed(2)}, ${realPoint.y.toFixed(2)})`;
                coords.setAttribute('x', (x + 5).toString());
                coords.setAttribute('y', (y - 5).toString());
              });
              document.currentScript.parentElement.addEventListener('mouseleave', () => {
                document.currentScript.parentElement.getElementById('crosshair').style.display = 'none';
              });
            ]]></script></svg>